<?xml version="1.0" encoding="UTF-8"?>
<svg width="17px" height="26px" viewBox="0 0 17 26" version="1.1" xmlns="http://www.w3.org/2000/svg" xmlns:xlink="http://www.w3.org/1999/xlink">
    <!-- Generator: Sketch 55.1 (78136) - https://sketchapp.com -->
    <title>Group 3</title>
    <desc>Created with Sketch.</desc>
    <defs>
        <polygon id="path-1" points="0.0003 0.0005 67.252 0.0005 67.252 67.2525 0.0003 67.2525"></polygon>
    </defs>
    <g id="Mock-Ups" stroke="none" stroke-width="1" fill="none" fill-rule="evenodd">
        <g id="Landing-Page" transform="translate(-572.000000, -5205.000000)">
            <g id="Group-3" transform="translate(580.000000, 5217.000000) rotate(-180.000000) translate(-580.000000, -5217.000000) translate(546.000000, 5183.000000)">
                <mask id="mask-2" fill="white">
                    <use xlink:href="#path-1"></use>
                </mask>
                <g id="Clip-2"></g>
                <path d="M33.6263,67.2525 C15.0553,67.2525 0.0003,52.1975 0.0003,33.6265 C0.0003,15.0555 15.0553,0.0005 33.6263,0.0005 C52.1973,0.0005 67.2523,15.0555 67.2523,33.6265 C67.2523,52.1975 52.1973,67.2525 33.6263,67.2525 M41.8773,36.6925 C41.8453,36.4575 41.7403,36.2315 41.5623,36.0505 C41.1283,35.6095 40.4243,35.6095 39.9903,36.0505 L34.8453,41.2685 L34.8453,22.3435 C34.8453,22.1935 34.8163,22.0515 34.7643,21.9205 C34.6903,21.3715 34.2263,20.9475 33.6633,20.9475 C33.0493,20.9475 32.5523,21.4525 32.5523,22.0745 L32.5523,41.3395 L27.3363,36.0505 C26.9023,35.6095 26.1983,35.6095 25.7643,36.0505 C25.4393,36.3795 25.3573,36.8625 25.5203,37.2705 C25.5513,37.5055 25.6563,37.7315 25.8343,37.9125 L32.9483,45.1255 C33.1653,45.3465 33.4493,45.4555 33.7333,45.4555 C34.0183,45.4555 34.3023,45.3465 34.5203,45.1255 L41.6323,37.9125 C41.9573,37.5825 42.0393,37.0995 41.8773,36.6925 M33.6263,67.2525 C52.1973,67.2525 67.2523,52.1975 67.2523,33.6265 C67.2523,15.0555 52.1973,0.0005 33.6263,0.0005 C15.0553,0.0005 0.0003,15.0555 0.0003,33.6265 C0.0003,52.1975 15.0553,67.2525 33.6263,67.2525" id="Fill-1" fill="#FFFFFF" mask="url(#mask-2)"></path>
            </g>
        </g>
    </g>
</svg>