<?xml version="1.0" encoding="utf-8"?>
<!-- Generator: Adobe Illustrator 22.1.0, SVG Export Plug-In . SVG Version: 6.00 Build 0)  -->
<svg version="1.1" id="Layer_3" xmlns="http://www.w3.org/2000/svg" xmlns:xlink="http://www.w3.org/1999/xlink" x="0px" y="0px"
	 viewBox="0 0 2880 2570" style="enable-background:new 0 0 2880 2570;" xml:space="preserve">
<style type="text/css">
	.st0{fill:url(#SVGID_1_);}
	.st1{opacity:0.41;fill:url(#SVGID_2_);}
	.st2{fill:url(#SVGID_3_);}
	.st3{fill:#5E3C26;}
	.st4{fill:url(#SVGID_4_);}
	.st5{fill:#332408;}
	.st6{fill:url(#SVGID_5_);}
	.st7{fill:url(#SVGID_6_);}
	.st8{opacity:0.37;fill:#AA6333;}
	.st9{fill:#AA6333;}
	.st10{opacity:0.34;fill:#AA6333;}
	.st11{opacity:0.95;fill:url(#SVGID_7_);}
	.st12{fill:url(#SVGID_8_);}
	.st13{opacity:0.29;fill:#ED9C79;}
	.st14{opacity:0.35;fill:url(#SVGID_9_);}
	.st15{opacity:0.63;fill:url(#SVGID_10_);}
	.st16{opacity:0.45;fill:#332408;}
	.st17{fill:url(#SVGID_11_);}
	.st18{fill:url(#SVGID_12_);}
	.st19{fill:url(#SVGID_13_);}
	.st20{fill:url(#SVGID_14_);}
	.st21{fill:url(#SVGID_15_);}
	.st22{fill:url(#SVGID_16_);}
	.st23{opacity:0.18;fill:#FFAC84;}
	.st24{fill:url(#SVGID_17_);}
	.st25{fill:url(#SVGID_18_);}
	.st26{fill:url(#SVGID_19_);}
	.st27{fill:url(#SVGID_20_);}
	.st28{opacity:0.17;fill:url(#SVGID_21_);}
</style>
<g>
	
		<linearGradient id="SVGID_1_" gradientUnits="userSpaceOnUse" x1="-43.393" y1="1736.1743" x2="2842.4883" y2="1736.1743" gradientTransform="matrix(-1 0 0 1 2839.4019 0)">
		<stop  offset="6.060610e-03" style="stop-color:#6E4A7A"/>
		<stop  offset="0.6899" style="stop-color:#5F4D6B"/>
		<stop  offset="0.7818" style="stop-color:#5C4D69"/>
		<stop  offset="0.8261" style="stop-color:#614F68"/>
		<stop  offset="0.8777" style="stop-color:#6F5466"/>
		<stop  offset="0.9329" style="stop-color:#865C63"/>
		<stop  offset="0.9902" style="stop-color:#A7675F"/>
		<stop  offset="1" style="stop-color:#AD695E"/>
	</linearGradient>
	<polygon class="st0" points="-3.1,1908.6 2882.8,1908.6 2882.8,1563.8 -3.1,1563.8 	"/>
	
		<linearGradient id="SVGID_2_" gradientUnits="userSpaceOnUse" x1="653.7198" y1="1514.6757" x2="653.7198" y2="1026.6261" gradientTransform="matrix(-1 0 0 1 2839.4019 0)">
		<stop  offset="0" style="stop-color:#552C2D"/>
		<stop  offset="1" style="stop-color:#B84916"/>
	</linearGradient>
	<path class="st1" d="M1456.6,1593.9l1458.2,87.6v-443.6c-7.8-12.6-28.2-15.6-39.4-5.8c-5.5-18.8-30.2-29.9-47.9-21.6
		c-4-11.8-20.2-18.2-31.2-12.4c-8.8-18.3-36-25.5-52.6-14c-14.2-15.9-43.8-15.2-57.3,1.4c-17.8-6.7-40.9,6.1-44.7,24.7
		c-44.9-36.1-123.6-21.1-152.1,29c-18.9-6.8-43.2,7.1-46.9,26.9c-35.7-30.4-100-20.1-124.4,20c-22.7-15-59-4.5-70.2,20.3
		c-21.5-18.3-60.2-12.2-74.9,11.9c-23.7-12.6-58.4,1-67.1,26.4c-34.6-10.4-76.8,16.9-81.5,52.7c-27.2-15.5-68.1-0.6-79.1,28.8
		c-24-17.1-63.6-7.2-76.7,19.2c-19.6-16.1-54.3-9.9-67.1,12c-14.7-14.5-43.2-12-55.1,4.8c-18.4-14.8-50.7-8.6-62.3,12
		c-17.5-19.1-53.4-17.9-69.5,2.4c-30.6-12.6-71.5,8.5-79.1,40.7C1494.9,1513.3,1454,1552.9,1456.6,1593.9z"/>
	
		<linearGradient id="SVGID_3_" gradientUnits="userSpaceOnUse" x1="658.7485" y1="1592.821" x2="658.7485" y2="1199.1454" gradientTransform="matrix(-1 0 0 1 2839.4019 0)">
		<stop  offset="3.030300e-02" style="stop-color:#0D0F26"/>
		<stop  offset="0.1963" style="stop-color:#121228"/>
		<stop  offset="0.3938" style="stop-color:#201A2F"/>
		<stop  offset="0.6074" style="stop-color:#38273A"/>
		<stop  offset="0.8307" style="stop-color:#5A3949"/>
		<stop  offset="1" style="stop-color:#784A57"/>
	</linearGradient>
	<path class="st2" d="M2212.7,1481.2l36.9-44.6l-0.3-67.2l-4.8-51.6l1.4-50.2l-10.4-26.5l-13.9-14.1l-10.1-20.9
		c6.1-10.5,0.6-26.5-10.8-30.9c7.5-10.7,3-28.4-8.8-34.1c4.3-6.3,1.5-16.4-5.4-19.7c6.2-7.6,3.7-21.1-4.8-26
		c-0.7-4.6-6.2-8-10.6-6.6c-3.3-0.6-6.9,2.4-6.9,5.8c-11.2,7.2-13.8,25.6-4.9,35.5c-9.9,5.5-13,20.9-5.9,29.8
		c-9.4,5.2-12.4,19.8-5.8,28.2c-8.9,7-9.5,22.6-1.2,30.3c-12.7,6.1-17.8,25.1-9.8,36.7c-10,4.9-13.8,19.8-7.4,28.9
		c-7.7,8.7-5.4,24.6,4.4,30.8c-7,1.8-11.4,10.7-8.5,17.3c-14.1,8.4-18,31-7.4,43.6l3.3,25.1c-2,1.8-14.7,25.8,0.5,38.4
		c-8.5,14.7-0.6,36.9,15.2,43L2212.7,1481.2z"/>
	<path class="st3" d="M2208.8,1483.1l-10.4,0.9c-12.3-83.8-18.2-168-16.5-252.6C2188.8,1317.1,2197.9,1400.9,2208.8,1483.1z"/>
	<path d="M1786.6,1569.3l1094.6,69.8c0.9,0.1,1.6-0.6,1.6-1.5v-305.6c0-1.1-1.2-1.9-2.2-1.3c-18.4,9.7-45.3,1-54.3-17.7
		c-0.3-0.7-1.2-1-1.9-0.7c-15.9,6.5-37.1-3.1-42.7-19.3c-0.2-0.7-1-1.1-1.7-1c-23.4,5.3-50.3-13.1-54-36.8c-0.1-0.9-1-1.5-1.9-1.2
		c-20.7,6.1-46-8.4-51.2-29.3c-0.2-0.9-1.2-1.4-2.1-1c-8.2,3.6-18.9,1-25.2-5.5c-1-1-2.7-0.2-2.6,1.2c2.2,21.9-14.2,45.7-36,49.8
		c-0.7,0.1-1.2,0.7-1.2,1.4c-2.6,26.7-32,48.6-58.3,43.6c-0.8-0.2-1.6,0.4-1.8,1.3c-3.9,27.8-35.7,49.6-63,43.1
		c-0.7-0.2-1.4,0.1-1.7,0.8c-8.2,15.7-31.3,22.2-46.6,13.3c-0.8-0.5-1.9-0.1-2.2,0.9c-6.8,21.8-34.7,35.6-56.1,27.4
		c-0.6-0.2-1.4,0-1.8,0.5c-17.5,23-56.8,26.4-78,6.9c-0.6-0.6-1.7-0.5-2.2,0.2c-15.2,19.7-48.5,23.2-67.7,7.5
		c-0.9-0.8-2.4-0.2-2.5,1.1c-1.5,28.3-30.7,53.5-59,50.2c-0.6-0.1-1.1,0.2-1.5,0.7c-14.1,21.7-49.1,27.3-69.4,11.2
		c-0.6-0.5-1.6-0.4-2.1,0.2c-17.1,20.9-54,23.1-73.4,4.4c-0.6-0.6-1.6-0.5-2.2,0.1c-17,19.6-52.3,20.8-70.7,2.6
		c-0.7-0.7-2-0.5-2.4,0.4c-8.5,17.4-33.3,25.6-50.5,16.8c-0.9-0.4-2,0-2.2,1c-2.5,11.6-15.5,20.4-27.2,18.3
		c-0.8-0.1-1.5,0.3-1.7,1.1c-8.4,30.9-43.7,52.1-75.4,48.4C1784.4,1572.1,1784.6,1569.2,1786.6,1569.3z"/>
	<g>
		<g>
			
				<linearGradient id="SVGID_4_" gradientUnits="userSpaceOnUse" x1="165.1939" y1="1400.5951" x2="165.1939" y2="732.7442" gradientTransform="matrix(-1 0 0 1 2839.4019 0)">
				<stop  offset="0" style="stop-color:#552C2D"/>
				<stop  offset="1" style="stop-color:#B84916"/>
			</linearGradient>
			<path class="st4" d="M2473.1,1167.8c-4.3,16.3,6.5,35.1,22,41.4v0c2.7,1.1,5.5,1.8,8.3,2.1c-4.4,5.4-5.4,13-3.8,19.8
				c1.5,6,5,11.4,10.3,14.5c-13.7,12.6-12.8,38.3,1.8,49.9c-2.3,20.4,17.2,41.2,37.7,40.2c0.6,16.9,19.1,31.3,35.6,28
				c7.9,17.3,33.3,24.6,49.1,14c14.4,20.7,49.2,24.1,67.3,6.6c11.3,9.5,29.3,9.4,41.9,1.7c2-1.2,3.9-2.6,5.6-4.2
				c2-1.9,3.8-4,5.2-6.4c1.8,3.3,4.3,6.2,7.3,8.6c1.2,0.9,2.4,1.8,3.7,2.5c0.4,0.2,0.7,0.5,1.1,0.6c11.4,6.3,26.6,6.4,36.9-1.5
				c5.1,10.5,20.8,14.6,30.4,7.9c11.8,4.8,27.5-3.4,30.4-15.8c2.2,9.9,9.7,18.2,18.9,22.9V810c-4-9.8-12.4-18-22.5-20.6
				c-1-0.2-2-0.4-3-0.6c-0.8-4.9-3-9.3-6.1-13.2c-1.1-1.4-2.4-2.7-3.8-4c-8.7-7.9-21.4-11.7-32.4-7.9c-2.9-11.7-17.9-19.3-29.1-14.5
				c-3.6-11.8-19.3-18.6-30.3-13.2c-0.4-0.3-0.9-0.6-1.3-0.8c-10.7-5.9-26.6-1.1-31.7,10c-16.8-3.1-35.3,11.9-35.6,29.1
				c-21.5-6.3-47.4,10.8-50.2,33c-13,6.2-21,20.6-22,35.2c-0.6,8.6,1.3,17.2,6.2,24.2c-18.2,1.3-33.2,21.8-29,39.6
				c-6.4-3.6-14.1-4.2-21.3-2.5c-9.8,2.4-18.8,9-22.2,18.3c-12.8-0.7-25.1,12.3-23.8,25.1c-20.3,8.9-31.3,34.5-26.7,56
				c1,5,2.9,9.7,5.6,13.9c-16.2,10.6-19.6,37.2-6.6,51.5c-7.9,3.3-13.7,10.4-16.5,18.6c-3,8.7-2.7,18.6,2,26.3
				C2464.8,1124.1,2460,1152.1,2473.1,1167.8z"/>
			<g>
				<path class="st3" d="M2779.7,1217c-4.8,18.6-8.4,53.9-10.6,92.9c0,0,0,0,0,0c-3.8,65.9-4,142.2-0.5,166.7
					c-1.9-1.9-20.4,5.6-20.4,5.6s-12.8-165.3,1.5-243.5c2-11,4.6-20.3,7.8-27.2C2779.7,1217,2779.7,1217,2779.7,1217z"/>
				<path class="st5" d="M2756.7,1365.5c0,0,36-6.9,68.2-82c6.1,3.8,6.1,3.8,6.1,3.8c-3.8,14.6-52.6,85.8-69.7,103.4
					C2744.1,1408.5,2756.7,1365.5,2756.7,1365.5z"/>
				<path class="st5" d="M2751,1308.7c0,0-33.3-15.4-46.5-96c-6.9,2.2-6.9,2.2-6.9,2.2c0.2,15.1,30.4,95.9,42.8,117.2
					C2752.9,1353.4,2751,1308.7,2751,1308.7z"/>
				<path class="st5" d="M2768.6,1476.6c-1.9-1.9-20.4,5.6-20.4,5.6s-12.8-165.3,1.5-243.5c2,16.2,4.6,44.6,1.5,62.6
					c-4.5,26.2-1.9,108.8,0,137.6c1.9,28.8,6.4,32,6.4,32c2.6-16.6,5.3-63.4,4.5-71.7c-0.7-7.1-2.6-56.9,7-89.2
					C2765.2,1375.8,2765.1,1452.2,2768.6,1476.6z"/>
			</g>
			
				<linearGradient id="SVGID_5_" gradientUnits="userSpaceOnUse" x1="-43.393" y1="1061.5183" x2="369.2078" y2="1061.5183" gradientTransform="matrix(-1 0 0 1 2839.4019 0)">
				<stop  offset="0" style="stop-color:#552C2D"/>
				<stop  offset="1" style="stop-color:#B84916"/>
			</linearGradient>
			<path class="st6" d="M2476.7,1070.5c-1.9,5.6-0.2,12.1,3.6,16.8c2.5,3.1,6,5.4,9.9,6.1c2.2,8.7,13.3,14.3,21.6,10.8
				c-3.1,7.9,2.5,18.4,10.8,20.2c-6.6,10.9-1,27.6,10.8,32.3c-6.9,1.2-11.7,9.6-9.5,16.2c-7.3-2.4-16.3,3.2-17.5,10.8
				c-6.9,1.9-11.1,11-8.1,17.5c-1.5,2.4-2.6,5.1-3.1,7.9v0c-1.4,7.4,0.4,15.6,4.6,21.9c2.6,4,6.3,7.3,10.7,9.2
				c-3,15.8,10.9,33.2,27,33.7c2.5,13,18.5,22.1,31,17.5c10.5-2.4,17.5-15.6,13.5-25.6c5.5-3.6,8.6-10.2,8.8-16.9
				c6.1,8.8,17.1,14.6,27.6,12.8c6.8,8.7,22.1,9.4,29.7,1.3c16.6-3,28.5-23.2,22.9-39.1c7.4,8.1,19.9,10.6,30.5,7.6
				c2.2-0.6,4.4-1.5,6.4-2.6c2.9-1.6,5.5-3.7,7.6-6.3c12.2,3.5,26.8-6.3,28.3-18.9c1.2,6.9,4.9,13.2,9.9,18.1
				c6.2,6.1,14.4,10.2,22.8,11.5c5.3,0.8,10.7,0.4,15.7-1.3c0.9,11.1,13.4,20.2,24.3,17.5l-8.1,20.2c-4.5,11-0.8,24.4,7.3,33.2
				c1.5,1.7,3.2,3.2,5.1,4.4c2.8,1.9,5.9,3.4,9.2,4.2c3.5,14.2,21.6,23.2,35,17.5c4.6,5.1,11,8.3,17.9,9.6V884.6c-0.1,0-0.3,0-0.4,0
				c0.1-0.1,0.3-0.2,0.4-0.3v-55.6c-1.3-1.4-2.8-2.5-4.4-3.4c-5.5-11.1-22.2-15.3-32.3-8.1c1.9-10.9-7.8-22.7-18.9-22.9
				c-4.6-9.3-18.5-12.7-26.9-6.7c-13.7-2.9-29,9-29.7,22.9c-5,0.3-9.2,5.9-8.1,10.8c-6.3-5.8-18.1-4.4-22.9,2.7
				c2.9-9.7-4.8-21.6-14.8-22.9c0.8-6-4.7-12.2-10.8-12.1c-7.6-7.4-22.2-6-28.3,2.7c-4.2-0.9-8.6,0-12.3,2.2c-5,3-8.9,8.2-9.3,13.9
				c-11.2-3-24.4,6-25.6,17.5c-10.2,0.4-19.5,7.9-23.7,17.3c-2.1,4.7-3,10-1.9,15.1c-18-6.4-41,6.8-44.5,25.6
				c-3.2,6.5-1.9,14.7,2.2,20.7c2.4,3.6,5.8,6.3,9.9,7.6c-8.3,5.7-9.7,19.7-2.7,27c-12.8,0.4-24,14.3-21.6,27
				c-10.5-2.3-22.3,6.8-22.9,17.5c-9.9-1.5-20.3,7.6-20.2,17.5c-5.2-1-10.6,0.2-15.2,2.9c-7.3,4.1-12.8,11.8-13.1,20
				C2469.5,1032.5,2465.3,1056.9,2476.7,1070.5z"/>
			
				<linearGradient id="SVGID_6_" gradientUnits="userSpaceOnUse" x1="61.3526" y1="894.7242" x2="61.3526" y2="710.617" gradientTransform="matrix(-1 0 0 1 2839.4019 0)">
				<stop  offset="0" style="stop-color:#552C2D"/>
				<stop  offset="1" style="stop-color:#B84916"/>
			</linearGradient>
			<path class="st7" d="M2673.6,837c17.5-7,40.7,5.1,44.9,23.5c22.1-6.3,48.6,11.4,51.3,34.2c9.6-21.1,40.5-29.9,59.9-17.1
				c5.4-22.3,30.6-37.9,53.2-35.3v-20.2c-6.9-6.3-16.3-10-25.3-8.6c4.8-6.9,5.4-16,2.8-24.1c-1.7-5.4-4.8-10.3-9.1-13.7
				c-1.4-1.1-2.9-2.1-4.4-2.8c0.2-0.4,0.5-0.7,0.7-1.1c5.4-9.7,0.9-24.2-9.3-28.8c5.4-10.8-1.3-26.3-12.8-29.9
				c-7.5-5.1-19.6-1.8-23.5,6.4c-8.3-6.3-22.4-3.2-27.3,6c-7.7-1-15.7,3.4-20.2,9.9c-2.5,3.5-3.9,7.7-3.8,12
				c-15.5-3.5-33.2,9.8-34.2,25.6c-16.3-7.1-38.6,3.7-43,20.9C2685.6,804.2,2685.8,826.5,2673.6,837z"/>
		</g>
		<path class="st8" d="M2604.9,1068.4c-4.2,10.4-2.5,22.1,2.6,32.2c2.8,5.5,6.6,10.5,11,14.7c12.6,11.9,29.3,18.2,45.5,24.3
			c3.6,1.3,8,2.6,11.2,0.4c2.1-1.5,3-4.1,3.7-6.5c3.1-11.5,3.2-23.8,0.1-35.3c6.9,7.9,21.2,2.2,25.2-7.5c4-9.7,1-20.7-1.9-30.8
			c12.1,21.2,47.9,21.9,60.8,1.3c10,16.7,37.3,19,50,4.3c-4.2-7-8.4-14-12.6-21c17.2-2.6,35.6,4.2,47.1,17.2
			c11.5,13.1,15.8,32.2,11.1,48.9c4.2-0.1,8.3-0.2,12.4-0.3c-9.7,10.8-19.8,22.5-21.9,36.9c-2,14.4,8.3,31.4,22.8,30.4
			c3.6-0.2,7.3-1.5,10.9-2.9v-165.9c-2.6,0.5-5.1,1.6-7.2,3.4c2.4-3.4,4.8-6.8,7.2-10.1v-16.1c-12-3.1-24.5-4.4-36.9-3.8
			c-2.1,0.1-4.1,0.2-6.2,0.4c2.1-3.6,4.2-7.2,6.4-10.8c-18.7-3.4-38.5-0.1-55.3,8.9c-5.2,2.8-10.1,6.1-14.5,9.9
			c4.2-4.6,7.5-10.6,8.4-16.6c0.7-4.1,0.3-8.2-1.4-12c-4.3-9.5-19.6-13-25.3-4.3c1.9-3.3,3.7-6.5,5.6-9.8c4.7-8.2-27.2-2.1-30-0.1
			c-3-5.4-6.8-11.2-11.7-15.1c-2.6-2-5.9-3.7-9-2.6c-2.9,1-4.1,5.7-1.6,7.3c-5.7-2.8-12.2-5.6-18.2-3.4c-5.3,2-7.5,10.1-4,13.6
			c0.5,0.5,1.2,1,2,1.2c-1.3-0.2-2.6-0.3-3.9-0.1c-0.6,0-1.2,0.1-1.8,0.2c-7,1.2-13.5,6.3-19.1,11.2c-9.3,8.1-18.5,16.1-27.8,24.1
			c-0.1,0.1-0.2,0.2-0.3,0.3c-3.6,3.1-7.1,6.2-10.7,9.3c-2.5,2.2-5.1,4.5-7.1,7.1c-1.9,2.4-3.4,5-4,7.9c-0.1,0.6-0.2,1.3-0.3,1.9
			c-0.3,4.4,3.2,8.8,7.1,10.2c-12.7,2.3-25.6,6-32.9,16.3C2581.7,1049.4,2590.5,1071.7,2604.9,1068.4z"/>
		<path class="st5" d="M2696.6,1061.6l-9.7,5.4c0,0-4.3-25.8-19.4-40.9c-8.6-1.1-44.9-10.6-44.9-10.6c-4.9-4.4,40.6,3.1,40.6,3.1
			c-3.2-9.7-24.7-34.2-24.7-34.2c16.1-7.7,30.1,28.9,30.1,28.9c6.5,0,14.9-28.7,14.9-28.7l3.8,3.2l-10.1,34.1
			C2677.2,1021.8,2695.5,1055.1,2696.6,1061.6z"/>
		<path class="st8" d="M2791,977.5c-2.4-2.7-6.5-3.8-10-3c0-0.4-0.1-0.8-0.3-1.2c-1.3-2.9-5-3.8-8.2-3.7c-5.1,0.1-10.1,1.8-14.3,4.6
			c0.2-0.9,0.3-1.9,0.2-2.8c-0.5-3.7-3.1-6.7-6-9c-9.6-7.4-23.5-8.1-34.1-2.6c1.4-3.3,0.9-7.8-2.2-9.9c-5.1-3.5-12.4-0.7-16,4.3
			c0.9-2.7-1.8-6.3-5-6.4c-2.8-0.1-5.2,1.5-7.4,3.4c0.9-2.5-0.9-6.5-4-7.1c-4.2-0.8-8.1,2.2-11.2,5.1c-0.6-1.5-1.2-3.1-1.8-4.6
			c-1.4-3.5-15.4,7.9-16.4,9c-7.8-5.4-15.8-5.5-24.6-3.6c-3.1,0.7-20.6,8.5-9.4,12.8c-14,2.5-26,13.6-29.7,27.3
			c-5.5,2.5-11.4,5.4-14.1,10.8c-1.9,3.7-1.1,8.9,1.6,11.8c-6.4-1.2-14.1,3.8-19,9.1c-2.7,2.9-5.3,6.2-5.5,10.1
			c-0.2,3.9,3.4,8.1,7.2,7c-6.2,2.4-9.9,10-8,16.4s9.2,10.6,15.7,9.2c-4.6,6.1-2.9,15.3,1.9,21.2c4.8,6,11.9,9.5,18.8,12.8
			c5,2.4,10.4,5,16,4.5c7.3-0.6,13.7-7.1,14.2-14.4c0.3-4.5-1.6-9-4.7-12.1c4.5,0.8,9.5-0.7,12.1-4.5c4.3-6.2,0.8-16.1-6.3-18.2
			c7.2-1.3,14.2-3.7,20.7-7.1c3.4-1.8,7-4.4,7.3-8.2c0.4-5.8-6.8-8.7-12.5-9.9c3.1-0.7,6.1-1.4,9.2-2.1c-0.9-8.1-8.8-14.3-16.8-14.4
			c0.7-0.7,1.1-1.6,0.9-2.6c-8.1,2.4-17.4-0.4-22.9-6.7c3.6,1,6.5-3.3,6-6.7c3.9,4.7,10.5,7.2,16.5,5.7c7.1-1.8,12.4-9.1,12-16.4
			c7.3,1.6,14.8,2.3,22.2,2.1c-1.4,7.1,6.4,14.3,13.3,12.3c2.6-0.8,5.8-2.3,7.6-0.3c0.8,0.9,0.9,2.3,1.1,3.5
			c1.2,6.1,7.6,10.1,13.7,10.6c6.2,0.5,12.3-1.6,18.1-3.7c-3.1,4.2,1,10.6,6.1,11.5c5.1,0.9,10.2-1.8,14.5-4.8
			c4.3-3,8.7-6.3,13.9-6.9c0.3,2.6,0.5,5.2,0.8,7.8c9.7-2.1,19.1-5.8,27.6-11.1c5-3.1,9.8-6.9,12.5-12.1
			C2794.8,988.8,2794.9,981.8,2791,977.5z"/>
		<path class="st9" d="M2882.8,1119.7c-2.3,4.2-3.6,8.8-3.5,13.6c0.1,4.3,1.4,8.4,3.5,12.1V1119.7z"/>
		<path class="st10" d="M2845.9,982.3c0,1.2,0.2,2.4,0.7,3.5c1.8,3.9,6.9,5.9,10.9,4.3c-4.4,6.3-3.8,15.7,1.5,21.4
			c5.2,5.7,14.5,7.1,21.2,3.2c-2.8,5.1-1.2,10.3,2.5,14.7v-91.1c-0.7-0.1-1.3-0.1-1.8-0.1c-5.1-0.1-12,4.6-15.1,6.1
			c-5.4,0.6-10.6,3.3-13.9,7.6c-4.9,6.3-5.6,15.6-1.6,22.6C2847.6,976,2845.9,979.2,2845.9,982.3z"/>
	</g>
	
		<linearGradient id="SVGID_7_" gradientUnits="userSpaceOnUse" x1="-43.393" y1="1532.5613" x2="957.647" y2="1532.5613" gradientTransform="matrix(-1 0 0 1 2839.4019 0)">
		<stop  offset="3.030300e-02" style="stop-color:#0D0F26"/>
		<stop  offset="0.1963" style="stop-color:#121228"/>
		<stop  offset="0.3938" style="stop-color:#201A2F"/>
		<stop  offset="0.6074" style="stop-color:#38273A"/>
		<stop  offset="0.8307" style="stop-color:#5A3949"/>
		<stop  offset="1" style="stop-color:#784A57"/>
	</linearGradient>
	<path class="st11" d="M1881.8,1562.3l1001,65v-180.2c-8.5-11.3-28-12.5-37.8-2.4c-14.7-11.5-40.2-6.3-49.2,10
		c-20.5-12-51.6-1.2-60.1,20.9c-12.1-8.4-31.9-3.2-38.3,10c-18.6-14-50.2-6.9-61.1,13.7c-11.9-16.6-40.2-18.9-54.7-4.5
		c-15-16.6-46.1-15.7-60.1,1.8c-20.7-11.8-51.8-0.5-60.1,21.9c-16.8-12.9-45.5-6.8-55.6,11.9c-11.2-13.2-35.3-13.2-46.5,0
		c-9-11.1-28.8-11.5-38.3-0.9c-10.7-16.7-38-20.5-52.9-7.3c-8.7-14.4-31.8-18.2-44.7-7.3c-11.5-12.9-35.5-12.5-46.5,0.9
		c-11.9-13.5-36.9-13-48.3,0.9c-11.4-14.4-36.8-15.3-49.2-1.8c-9.8-13.5-32.8-15.4-44.7-3.6c-11.6-5.3-27.6,2.3-31,14.6
		c-13.1-13.8-39.5-12.4-51,2.7c-10.6-5.7-26.2,0.5-30.1,11.8C1906.7,1534.1,1885.5,1545.4,1881.8,1562.3z"/>
	
		<linearGradient id="SVGID_8_" gradientUnits="userSpaceOnUse" x1="-43.3925" y1="2008.1193" x2="2842.4888" y2="2008.1193" gradientTransform="matrix(-1 0 0 1 2839.4019 0)">
		<stop  offset="3.030300e-02" style="stop-color:#0D0F26"/>
		<stop  offset="0.1963" style="stop-color:#121228"/>
		<stop  offset="0.3938" style="stop-color:#201A2F"/>
		<stop  offset="0.6074" style="stop-color:#38273A"/>
		<stop  offset="0.8307" style="stop-color:#5A3949"/>
		<stop  offset="1" style="stop-color:#784A57"/>
	</linearGradient>
	<polyline class="st12" points="-3.1,1558.2 -3.1,2458 2882.8,2458 2882.8,1558.2 	"/>
	
		<rect x="-3.1" y="1557.5" transform="matrix(-1 -1.208515e-10 1.208515e-10 -1 2879.7087 4060.0066)" class="st13" width="2885.9" height="945.1"/>
	
		<linearGradient id="SVGID_9_" gradientUnits="userSpaceOnUse" x1="-43.393" y1="1696.8623" x2="2220.2683" y2="1696.8623" gradientTransform="matrix(-1 0 0 1 2839.4019 0)">
		<stop  offset="0" style="stop-color:#472E40"/>
		<stop  offset="1" style="stop-color:#5C4A6B"/>
	</linearGradient>
	<path class="st14" d="M619.1,1650.7c640.4,2.8,2005.4,38.3,2263.7,101.2v-59.3C2685.3,1683,1310.8,1618.8,619.1,1650.7z"/>
	
		<linearGradient id="SVGID_10_" gradientUnits="userSpaceOnUse" x1="-43.393" y1="1842.9807" x2="2404.0505" y2="1842.9807" gradientTransform="matrix(-1 0 0 1 2839.4019 0)">
		<stop  offset="0" style="stop-color:#472E40"/>
		<stop  offset="1" style="stop-color:#5C4A6B"/>
	</linearGradient>
	<path class="st15" d="M435.4,1797.2c661,2.9,1732.9,30,2242.8,111.3h204.6v-57.2C2731.2,1835.5,1701.3,1735.7,435.4,1797.2z"/>
	<path class="st16" d="M2241.6,1757.2c0,0-1250.8-93.6-2049.3-49.9C1115.6,1732.3,2197.9,1747.9,2241.6,1757.2z"/>
	
		<linearGradient id="SVGID_11_" gradientUnits="userSpaceOnUse" x1="1546.7762" y1="1879.2" x2="2842.4883" y2="1879.2" gradientTransform="matrix(-1 0 0 1 2839.4019 0)">
		<stop  offset="0" style="stop-color:#472E40"/>
		<stop  offset="1" style="stop-color:#5C4A6B"/>
	</linearGradient>
	<path class="st17" d="M-3.1,1849.8v58.7h1295.7C918.2,1886.4,410.8,1859.6-3.1,1849.8z"/>
	<g>
		<g>
			
				<linearGradient id="SVGID_12_" gradientUnits="userSpaceOnUse" x1="366.4398" y1="1543.4634" x2="366.4398" y2="981.1234" gradientTransform="matrix(-1 0 0 1 2839.4019 0)">
				<stop  offset="0" style="stop-color:#552C2D"/>
				<stop  offset="1" style="stop-color:#B84916"/>
			</linearGradient>
			<path class="st18" d="M2488.7,1518.7c8.5,14.3,31.3,18.2,44.1,7.5c15.2,14.6,44.3,11.8,56.3-5.5c13.2,8.8,34.5,2.7,41.1-11.7
				c13.8,2.8,29.2-9.3,29.8-23.4c17.1,0.8,33.4-16.6,31.5-33.6c12.2-9.6,13-31.2,1.5-41.7c9.4-5.4,12.3-20.2,5.5-28.7
				c16.5-1.6,29.6-20.5,25.4-36.4c11-13.1,7-36.5-7.7-45.3c7.7-12.5,1.4-31.9-12.1-37.6c10.9-12,8-34.2-5.5-43.1
				c12.3-19.1,3.2-49.4-17.7-58.5c1.1-10.7-9.1-21.6-19.9-21c-5-13.5-23.9-20.4-36.4-13.3c3.5-14.9-9-32-24.3-33.1
				c10.9-15.8,4-41.5-13.3-49.7c-2.3-18.6-24-32.8-42-27.6c-0.3-14.3-15.7-26.9-29.8-24.3c-4.5-9.7-18.8-13.7-27.6-7.7
				c-9.3-4.5-22.4,1.2-25.4,11c-9.3-4-21.9,2.3-24.3,12.1c-14.5-4.9-32.8,5.9-35.3,21c-15.3,2-27,19.9-22.6,34.7
				c-9,5.8-11,20.5-3.9,28.5c-18.5,3-31.9,25.2-26,43c-9.5-4.1-22.4,2.1-24.9,12.1c-16.2-4.5-35.6,8.5-37.5,25.2
				c-15.4,3.4-25.7,22.9-19.9,37.6c-17.2,7.7-24.7,32.8-14.4,48.6c-14.9-2.9-31.5,10.2-32,25.4c-10.8,14.6-5.1,39.2,11,47.5
				c-10,11.7-6.6,32.9,6.6,40.9c-7.3,10.5-2.7,27.6,8.8,33.1c-9.8,12.6-5.3,34.4,8.7,42.1c-1.9,15,12.4,30.5,27.5,30
				c3.3,15.7,22.8,26.4,37.8,20.7c3.4,12.8,19.9,20.8,32,15.5c-7.3,7.9-5.6,22.7,3.3,28.7c15.5,6.2,36.1-4.7,39.8-21
				c2.4,10.4,15.5,17.3,25.4,13.3c8,5.6,21.1,2.2,25.4-6.6C2460.1,1536.9,2481.2,1532.4,2488.7,1518.7z"/>
			<g>
				<path class="st3" d="M2467.4,1386.3c4.1,15.6,7,45.1,8.9,77.7c0,0,0,0,0,0c3.2,55.1,3.3,119,0.4,139.4
					c1.6-1.6,17.1,4.7,17.1,4.7s10.7-138.3-1.2-203.8c-1.7-9.2-3.8-17-6.5-22.7C2467.4,1386.3,2467.4,1386.3,2467.4,1386.3z"/>
				<path class="st5" d="M2486.6,1510.5c0,0-30.1-5.8-57.1-68.6c-5.1,3.2-5.1,3.2-5.1,3.2c3.2,12.2,44,71.8,58.3,86.5
					C2497.1,1546.4,2486.6,1510.5,2486.6,1510.5z"/>
				<path class="st5" d="M2491.3,1463c0,0,27.9-12.9,38.9-80.3c5.7,1.9,5.7,1.9,5.7,1.9c-0.2,12.6-25.4,80.2-35.8,98
					C2489.8,1500.4,2491.3,1463,2491.3,1463z"/>
				<path class="st5" d="M2476.7,1603.5c1.6-1.6,17.1,4.7,17.1,4.7s10.7-138.3-1.2-203.8c-1.6,13.5-3.8,37.3-1.3,52.4
					c3.7,21.9,1.6,91,0,115.1c-1.6,24.1-5.3,26.8-5.3,26.8c-2.2-13.9-4.4-53-3.8-60c0.6-6,2.1-47.6-5.8-74.6
					C2479.5,1519.1,2479.6,1583,2476.7,1603.5z"/>
			</g>
			
				<linearGradient id="SVGID_13_" gradientUnits="userSpaceOnUse" x1="113.1045" y1="1256.443" x2="612.7097" y2="1256.443" gradientTransform="matrix(-1 0 0 1 2839.4019 0)">
				<stop  offset="0" style="stop-color:#552C2D"/>
				<stop  offset="1" style="stop-color:#B84916"/>
			</linearGradient>
			<path class="st19" d="M2230.3,1271.6c-7.7-18.1,4.5-42.6,23.7-47.4c-6.2-14.7,3.7-34.5,19.2-38.3c-1.3-16.6,15-32.9,31.6-31.6
				c2.7-7.7,13.2-11.7,20.3-7.9c5.2,1.2,9.3,5.5,11.2,10.5c2.6-15.2,16.2-29,31.7-29.7c-2.2-8.5,4.8-18.4,13.5-19.2
				c-6.9-4.8-8.1-16.5-2.3-22.6c-6.3-8.1-3.4-22.1,5.6-27.1c4.6-9.3,18.6-12.8,27.1-6.8c-1.6-9.1,6.5-19,15.8-19.2
				c3.8-7.8,15.5-10.7,22.6-5.6c11.4-2.4,24.2,7.5,24.8,19.2c4.2,0.3,7.7,4.9,6.8,9c5.3-4.9,15.2-3.7,19.2,2.3
				c-2.4-8.1,4-18.1,12.4-19.2c-0.7-5,4-10.3,9-10.1c6.4-6.2,18.6-5,23.7,2.3c8.2-1.8,17.5,5.2,18,13.5c9.3-2.5,20.4,5,21.4,14.7
				c12.8,0.5,23.9,14.5,21.4,27.1c15.1-5.4,34.3,5.7,37.2,21.4c4.3,8.6-1,20.8-10.1,23.7c6.9,4.8,8.1,16.5,2.3,22.6
				c10.7,0.3,20.1,12,18,22.6c8.8-1.9,18.7,5.7,19.2,14.7c8.2-1.3,17,6.3,16.9,14.7c11.1-2.1,23.4,7.8,23.7,19.2
				c12.8,7.6,16.3,28,6.8,39.5c2.7,7.8-3.1,17.7-11.3,19.2c-1.8,7.3-11.1,12-18,9c2.6,6.6-2.1,15.4-9,16.9c5.5,9.1,0.8,23.1-9,27.1
				c5.7,1,9.8,8,7.9,13.5c6.1-2,13.7,2.7,14.7,9c5.8,1.6,9.3,9.2,6.8,14.7c6.8,10.8,1.6,27.7-10.1,32.7c2.5,13.2-9.1,27.8-22.6,28.2
				c-2.1,10.9-15.5,18.5-25.9,14.7c-8.8-2-14.6-13.1-11.3-21.4c-4.6-3-7.2-8.6-7.4-14.1c-5.1,7.4-14.3,12.3-23.1,10.7
				c-5.7,7.3-18.5,7.9-24.8,1.1c-13.9-2.5-23.8-19.4-19.2-32.7c-9.3,10.3-28.5,9.7-37.2-1.1c-10.2,2.9-22.4-5.3-23.7-15.8
				c-3.1,17.2-24.1,29.5-40.6,23.7c-0.7,9.3-11.2,16.9-20.3,14.7l6.8,16.9c5.5,13.6-3.8,31.6-18,35c-2.9,11.8-18.1,19.4-29.3,14.7
				c-10.7,11.9-32.8,11.3-42.8-1.1c-18,6.2-40.7-7.2-44-25.9c-17.2,1.4-34.1-15.5-32.7-32.7c-7.8-5-9.6-17.9-3.4-24.8
				c-2.1-11.7,8.4-24.6,20.3-24.8c-10.9-2.1-18.5-15.5-14.7-25.9c-12.2-0.5-22.7-13.9-20.3-25.9c-10,2-21-6.8-21.4-16.9
				C2226.8,1296.6,2223.3,1280.9,2230.3,1271.6z"/>
			
				<linearGradient id="SVGID_14_" gradientUnits="userSpaceOnUse" x1="375.1893" y1="1056.3438" x2="375.1893" y2="946.6716" gradientTransform="matrix(-1 0 0 1 2839.4019 0)">
				<stop  offset="0" style="stop-color:#552C2D"/>
				<stop  offset="1" style="stop-color:#B84916"/>
			</linearGradient>
			<path class="st20" d="M2556.1,1068.4c-10.2-8.8-10.1-27.5,0.2-36.2c-3.7-14.4-22.3-23.5-36-17.5c-0.8-13.3-15.6-24.4-28.6-21.5
				c0.3-10.1-10-19.5-20-18.2c-4.1-7.7-15.9-10.3-22.9-5c-3.2-6.9-13.4-9.6-19.7-5.4c-9.7,3-15.2,15.9-10.7,25
				c-8.8,4-12.5,17-7.2,25c-11.8,5.7-16.5,23.3-9,34c-14.8-2.2-30.4,11.5-30.2,26.4c20.6-8.6,48.3,5.4,53.6,27.2
				c16.1-10.7,42-3.3,50.1,14.3c2.3-19.1,24.4-33.9,42.9-28.6C2522.1,1072.6,2541.5,1062.5,2556.1,1068.4z"/>
		</g>
		<path class="st5" d="M2453.5,1087.1c7.9-10,20.3-35.1,21.3-42.6c-2.5-1.7-2.5-1.7-2.5-1.7c-4,10.6-15.6,35.7-20,40.7
			c-3.6-4.5-5.6-29.2-5.6-29.2c-2.4-0.3-1.5-2.2-2.4-0.3c0.5,15.5,2.8,29.9,3,32.7c-2.6,6.1-5.8,20.4-7.8,32
			c-5.2-28.8-8.6-60.4-6.2-88.5l-2.7-0.7c-1.9,50.2,3.2,99.3,12.1,147.7c-13.3-9.6-38.6-23.9-48.6-34.1c0,0,0,0-1.7,5.6
			c8.6,0,39.2,29.5,52.3,38.7c1.6,8.3,3.3,16.5,5.1,24.8l12.8-3.8c0,0-11.6-33.2-20.4-75.9
			C2442.3,1132.3,2448.7,1093.5,2453.5,1087.1z"/>
		<path class="st8" d="M2313.6,1319.4c-3.1-3.5-4.6-8.8-2.3-12.9c4.5-8.1,16-9.6,24.9-6.9c-0.9-9.7-0.6-20.1,4.9-28
			c5.5-8,17.8-11.8,25.2-5.5c-4.7-6.5-9.3-13.1-14-19.6c14.1-4.8,29.2-6.6,44-5.2c-1.8-3-3.6-6-5.3-9c20.5-3.8,42.5,2.2,58.4,15.7
			c-5.9-6.4-9.5-16-5.9-24s16.3-10.9,21.2-3.6c-1.6-2.7-3.1-5.4-4.7-8.2c-3.9-6.8,22.7-1.8,25.1-0.1c2.5-4.5,5.7-9.4,9.8-12.6
			c2.2-1.7,5-3.1,7.6-2.2c2.6,0.9,3.5,5.2,1,6.3c4.9-2.4,10.5-4.9,15.6-3c5.1,1.9,6.8,10.7,1.7,12.4c7.8-1.2,14.8,4.3,20.7,9.4
			c10.8,9.4,21.6,18.8,32.4,28.2c4.4,3.8,9.2,8.3,9.5,14.1c0.2,3.7-2.7,7.4-5.9,8.6c10.6,1.9,21.4,5.1,27.6,13.7
			c7.2,10.1-0.2,28.7-12.2,25.9c5.5,13.4-0.8,29.3-11.4,39.3s-24.5,15.3-38.1,20.3c-3,1.1-6.7,2.2-9.3,0.3c-1.7-1.2-2.5-3.4-3.1-5.5
			c-2.6-9.6-2.6-19.9-0.1-29.5c-5.8,6.6-17.8,1.9-21.1-6.2c-3.3-8.1-0.9-17.3,1.6-25.7c-10.1,17.7-40.1,18.4-50.9,1.1
			c-8.4,14-31.2,15.9-41.8,3.6c3.5-5.9,7-11.7,10.6-17.6c-14.4-2.1-29.8,3.5-39.4,14.4c-9.6,11-13.2,26.9-9.3,40.9
			c-3.5-0.1-6.9-0.2-10.4-0.3c8.1,9,16.6,18.8,18.3,30.9c1.7,12-7,26.2-19.1,25.4c-9.4-0.6-19.3-9.4-26.9-3.8
			c-2.1,1.5-3.6,4-6.2,4.3c-2.4,0.3-4.4-1.6-6.1-3.3c-8.1-8.4-16.3-16.8-24.4-25.3c2.5,4.9,5.1,9.7,7.6,14.6
			c-12.9-11.6-24.9-26.8-24.3-44.2C2289.6,1333.3,2301.3,1320.6,2313.6,1319.4z"/>
		<path class="st8" d="M2460.1,1185.2c2-2.3,5.4-3.2,8.3-2.5c0-0.3,0.1-0.7,0.2-1c1.1-2.4,4.2-3.2,6.9-3.1c4.2,0.1,8.4,1.5,11.9,3.9
			c-0.2-0.8-0.3-1.6-0.2-2.3c0.4-3.1,2.6-5.6,5.1-7.5c8-6.2,19.6-6.8,28.5-2.2c-1.1-2.8-0.8-6.5,1.8-8.3c4.2-2.9,10.4-0.6,13.4,3.6
			c-0.8-2.2,1.5-5.3,4.2-5.3c2.3-0.1,4.4,1.2,6.2,2.8c-0.7-2.1,0.8-5.5,3.4-6c3.5-0.7,6.7,1.8,9.4,4.2c0.5-1.3,1-2.6,1.5-3.9
			c1.2-2.9,12.9,6.6,13.7,7.5c6.5-4.5,13.2-4.6,20.6-3c2.6,0.6,17.2,7.1,7.8,10.7c11.7,2.1,21.8,11.3,24.8,22.8
			c4.6,2.1,9.5,4.5,11.8,9c1.6,3.1,0.9,7.4-1.3,9.8c5.4-1,11.8,3.1,15.9,7.6c2.2,2.4,4.4,5.2,4.6,8.4c0.2,3.3-2.8,6.8-6,5.9
			c5.2,2,8.3,8.4,6.7,13.7c-1.6,5.3-7.7,8.9-13.2,7.7c3.9,5.1,2.4,12.8-1.6,17.8c-4,5-10,7.9-15.8,10.7c-4.2,2-8.7,4.1-13.4,3.7
			c-6.1-0.5-11.4-5.9-11.9-12c-0.3-3.8,1.3-7.5,4-10.2c-3.8,0.6-7.9-0.6-10.1-3.8c-3.6-5.1-0.7-13.4,5.3-15.3
			c-6-1.1-11.9-3.1-17.3-5.9c-2.8-1.5-5.9-3.7-6.1-6.9c-0.3-4.9,5.7-7.3,10.5-8.3c-2.6-0.6-5.1-1.2-7.7-1.8c0.8-6.7,7.4-12,14-12
			c-0.6-0.6-0.9-1.4-0.8-2.2c6.8,2,14.6-0.3,19.2-5.6c-3,0.9-5.4-2.8-5-5.6c-3.2,4-8.8,6-13.8,4.7c-6-1.5-10.4-7.6-10.1-13.7
			c-6.1,1.3-12.4,1.9-18.6,1.7c1.2,5.9-5.3,11.9-11.1,10.3c-2.2-0.6-4.9-2-6.4-0.3c-0.7,0.8-0.7,1.9-1,3c-1,5.1-6.3,8.4-11.5,8.9
			c-5.2,0.4-10.3-1.4-15.1-3.1c2.6,3.5-0.8,8.9-5.1,9.6c-4.3,0.8-8.5-1.5-12.1-4c-3.6-2.5-7.3-5.3-11.6-5.8
			c-0.2,2.2-0.4,4.3-0.6,6.5c-8.1-1.7-16-4.9-23.1-9.3c-4.2-2.6-8.2-5.7-10.4-10.1C2456.8,1194.6,2456.8,1188.8,2460.1,1185.2z"/>
		<path class="st8" d="M2276.5,1235.9c-3.6-5.7-2.2-13.1-0.6-19.7c2.1-9.2,4.6-19,11.2-25.7c6.7-6.7,19.2-8.5,25.2-1.2
			c13.9-2.9,27.7-5.8,41.6-8.8c-0.6-3.2-0.1-6.6,1.2-9.5c2-0.2,4.1,1.1,4.9,3c-2.6-5.1-1.5-11.9,2.7-15.8c3.5-3.2,15.9-5.2,20-5.3
			c4.3-0.1,10,3.9,12.6,5.1c4.5,0.5,8.8,2.8,11.6,6.4c4.1,5.3,4.7,13.1,1.4,18.9c3.2,1.7,4.7,6,3.1,9.3c-1.5,3.3-5.8,5-9.1,3.6
			c3.7,5.3,3.1,13.2-1.2,17.9c-4.4,4.8-12.2,5.9-17.8,2.7c4.8,8.7-5.8,18-15.3,20.6c-6.2,1.7-13.5,2.3-18.6-1.7
			c-5-4-4.6-14,1.7-15.5c-3.6,1-6.8-3.3-6.3-6.9c0.5-3.7,3.3-6.5,6-9.1c-8.3-3.7-18.7-2.4-25.9,3.1c-7.2,5.5-11.1,15.2-9.7,24.2
			c4.2,0.5,5.9,5.5,7.1,9.6c5.8,20.1,22.5,39.1,43.5,39.4c0.9,4.7-2.7,9.7-7.3,10.7c13.3-0.6,26.1,11.5,25.7,24.9
			c-0.3,11.3-9.9,21-20.8,23.1c0.6,0.8,1.1,1.7,1.1,2.7c0.3,4.7-4.2,8.3-8.6,9.8c-4.4,1.5-9.3,1.7-13.4,3.9c-2.3,1.2-4.3,3-6.8,3.5
			c-7.1,1.5-10.9-6.8-11.9-14.5c-1,2.2-3.7,4-6.2,3.7c-4.1-0.5-7.1-4-9.5-7.4c-4.3-5.9-8.4-12.2-9.7-19.4c-0.9-4.7-0.1-9.9,2.2-14.1
			c-1,0.2-1.9,0.2-2.9,0c-3.5-0.9-6.1-4-8.3-6.8c-2.9-3.7-5.9-7.5-7-12c-1.1-4.5,0.1-10,4.1-12.4c-9.2-3.8-12.2-17.5-5.5-24.9
			C2275.3,1248.8,2273.1,1241,2276.5,1235.9z"/>
	</g>
	<g>
		<g>
			
				<linearGradient id="SVGID_15_" gradientUnits="userSpaceOnUse" x1="1029.6921" y1="1527.8977" x2="1029.6921" y2="1244.0797" gradientTransform="matrix(-1 0 0 1 2839.4019 0)">
				<stop  offset="0" style="stop-color:#552C2D"/>
				<stop  offset="1" style="stop-color:#B84916"/>
			</linearGradient>
			<path class="st21" d="M1817.6,1515.4c4.3,7.2,15.8,9.2,22.3,3.8c7.7,7.4,22.4,5.9,28.4-2.8c6.7,4.4,17.4,1.4,20.7-5.9
				c7,1.4,14.7-4.7,15-11.8c8.6,0.4,16.9-8.4,15.9-17c6.1-4.9,6.5-15.8,0.8-21.1c4.8-2.7,6.2-10.2,2.8-14.5
				c8.3-0.8,14.9-10.3,12.8-18.4c5.5-6.6,3.5-18.4-3.9-22.9c3.9-6.3,0.7-16.1-6.1-19c5.5-6,4-17.3-2.8-21.7
				c6.2-9.7,1.6-24.9-8.9-29.5c0.6-5.4-4.6-10.9-10-10.6c-2.5-6.8-12.1-10.3-18.4-6.7c1.8-7.5-4.6-16.2-12.3-16.7
				c5.5-8,2-20.9-6.7-25.1c-1.2-9.4-12.1-16.6-21.2-13.9c-0.2-7.2-7.9-13.6-15.1-12.3c-2.3-4.9-9.5-6.9-13.9-3.9
				c-4.7-2.3-11.3,0.6-12.8,5.6c-4.7-2-11,1.2-12.3,6.1c-7.3-2.5-16.5,3-17.8,10.6c-7.7,1-13.6,10.1-11.4,17.5
				c-4.5,2.9-5.6,10.4-1.9,14.4c-9.3,1.5-16.1,12.7-13.1,21.7c-4.8-2.1-11.3,1.1-12.6,6.1c-8.2-2.3-17.9,4.3-18.9,12.7
				c-7.8,1.7-13,11.5-10,19c-8.7,3.9-12.4,16.6-7.2,24.5c-7.5-1.5-15.9,5.1-16.2,12.8c-5.4,7.4-2.6,19.8,5.6,24
				c-5,5.9-3.3,16.6,3.3,20.6c-3.7,5.3-1.4,13.9,4.5,16.7c-5,6.4-2.7,17.4,4.4,21.2c-0.9,7.6,6.2,15.4,13.9,15.1
				c1.7,7.9,11.5,13.3,19.1,10.4c1.7,6.5,10.1,10.5,16.2,7.8c-3.7,4-2.8,11.5,1.7,14.5c7.8,3.1,18.2-2.3,20.1-10.6
				c1.2,5.2,7.8,8.7,12.8,6.7c4,2.8,10.7,1.1,12.8-3.3C1803.2,1524.6,1813.9,1522.3,1817.6,1515.4z"/>
			<g>
				<path class="st3" d="M1806.9,1448.6c2,7.9,3.5,22.8,4.5,39.2c0,0,0,0,0,0c1.6,27.8,1.7,60.1,0.2,70.4c0.8-0.8,8.6,2.3,8.6,2.3
					s5.4-69.8-0.6-102.8c-0.9-4.7-1.9-8.6-3.3-11.5C1806.9,1448.6,1806.9,1448.6,1806.9,1448.6z"/>
				<path class="st3" d="M1816.6,1511.3c0,0-15.2-2.9-28.8-34.6c-2.6,1.6-2.6,1.6-2.6,1.6c1.6,6.1,22.2,36.2,29.4,43.7
					S1816.6,1511.3,1816.6,1511.3z"/>
				<path class="st3" d="M1819,1487.3c0,0,14.1-6.5,19.6-40.5c2.9,0.9,2.9,0.9,2.9,0.9c-0.1,6.4-12.8,40.5-18.1,49.5
					C1818.2,1506.1,1819,1487.3,1819,1487.3z"/>
				<path class="st3" d="M1811.6,1558.2c0.8-0.8,8.6,2.3,8.6,2.3s5.4-69.8-0.6-102.8c-0.8,6.8-1.9,18.8-0.6,26.4
					c1.9,11.1,0.8,45.9,0,58.1c-0.8,12.2-2.7,13.5-2.7,13.5c-1.1-7-2.2-26.8-1.9-30.3c0.3-3,1.1-24-2.9-37.6
					C1813,1515.6,1813.1,1547.9,1811.6,1558.2z"/>
			</g>
			
				<linearGradient id="SVGID_16_" gradientUnits="userSpaceOnUse" x1="901.8315" y1="1383.036" x2="1153.9867" y2="1383.036" gradientTransform="matrix(-1 0 0 1 2839.4019 0)">
				<stop  offset="0" style="stop-color:#552C2D"/>
				<stop  offset="1" style="stop-color:#B84916"/>
			</linearGradient>
			<path class="st22" d="M1687.3,1390.7c-3.9-9.2,2.3-21.5,12-23.9c-3.1-7.4,1.9-17.4,9.7-19.4c-0.7-8.4,7.6-16.6,15.9-15.9
				c1.3-3.9,6.6-5.9,10.2-4c2.6,0.6,4.7,2.8,5.6,5.3c1.3-7.7,8.2-14.6,16-15c-1.1-4.3,2.4-9.3,6.8-9.7c-3.5-2.4-4.1-8.3-1.1-11.4
				c-3.2-4.1-1.7-11.2,2.8-13.7c2.3-4.7,9.4-6.5,13.7-3.4c-0.8-4.6,3.3-9.6,8-9.7c1.9-3.9,7.8-5.4,11.4-2.8
				c5.8-1.2,12.2,3.8,12.5,9.7c2.1,0.1,3.9,2.5,3.4,4.6c2.7-2.5,7.7-1.9,9.7,1.1c-1.2-4.1,2-9.1,6.3-9.7c-0.4-2.5,2-5.2,4.6-5.1
				c3.2-3.1,9.4-2.5,12,1.1c4.1-0.9,8.8,2.6,9.1,6.8c4.7-1.3,10.3,2.5,10.8,7.4c6.5,0.2,12.1,7.3,10.8,13.7
				c7.6-2.7,17.3,2.9,18.8,10.8c2.1,4.3-0.5,10.5-5.1,12c3.5,2.4,4.1,8.3,1.1,11.4c5.4,0.2,10.1,6.1,9.1,11.4c4.4-1,9.4,2.9,9.7,7.4
				c4.2-0.6,8.6,3.2,8.5,7.4c5.6-1,11.8,4,12,9.7c6.5,3.8,8.2,14.1,3.4,19.9c1.4,3.9-1.6,9-5.7,9.7c-0.9,3.7-5.6,6-9.1,4.6
				c1.3,3.4-1,7.8-4.6,8.5c2.8,4.6,0.4,11.7-4.6,13.7c2.9,0.5,5,4.1,4,6.8c3.1-1,6.9,1.4,7.4,4.6c2.9,0.8,4.7,4.6,3.4,7.4
				c3.4,5.4,0.8,14-5.1,16.5c1.3,6.7-4.6,14-11.4,14.2c-1.1,5.5-7.8,9.3-13.1,7.4c-4.4-1-7.4-6.6-5.7-10.8c-2.3-1.5-3.6-4.3-3.7-7.1
				c-2.6,3.7-7.2,6.2-11.7,5.4c-2.9,3.7-9.3,4-12.5,0.6c-7-1.2-12-9.8-9.7-16.5c-4.7,5.2-14.4,4.9-18.8-0.6c-5.1,1.5-11.3-2.7-12-8
				c-1.6,8.7-12.2,14.9-20.5,12c-0.4,4.7-5.7,8.5-10.2,7.4l3.4,8.5c2.8,6.8-1.9,16-9.1,17.6c-1.5,6-9.1,9.8-14.8,7.4
				c-5.4,6-16.6,5.7-21.6-0.6c-9.1,3.1-20.5-3.6-22.2-13.1c-8.7,0.7-17.2-7.8-16.5-16.5c-4-2.5-4.8-9-1.7-12.5
				c-1.1-5.9,4.2-12.4,10.2-12.5c-5.5-1.1-9.3-7.8-7.4-13.1c-6.2-0.3-11.5-7-10.2-13.1c-5,1-10.6-3.4-10.8-8.5
				C1685.5,1403.3,1683.7,1395.4,1687.3,1390.7z"/>
		</g>
		<path class="st8" d="M1739.8,1389.1c-1.5-1.8-2.3-4.4-1.1-6.5c2.3-4.1,8.1-4.8,12.6-3.5c-0.4-4.9-0.3-10.1,2.5-14.2
			c2.8-4,9-6,12.7-2.8c-2.4-3.3-4.7-6.6-7.1-9.9c7.1-2.4,14.7-3.3,22.2-2.6c-0.9-1.5-1.8-3-2.7-4.5c10.3-1.9,21.5,1.1,29.5,7.9
			c-3-3.2-4.8-8.1-3-12.1s8.3-5.5,10.7-1.8c-0.8-1.4-1.6-2.8-2.4-4.1c-2-3.4,11.5-0.9,12.7-0.1c1.2-2.3,2.9-4.7,5-6.4
			c1.1-0.9,2.5-1.6,3.8-1.1c1.3,0.5,1.8,2.6,0.5,3.2c2.5-1.2,5.3-2.5,7.9-1.5c2.6,1,3.4,5.4,0.8,6.2c3.9-0.6,7.5,2.2,10.5,4.8
			c5.5,4.7,10.9,9.5,16.4,14.2c2.2,1.9,4.6,4.2,4.8,7.1c0.1,1.9-1.3,3.7-3,4.3c5.4,0.9,10.8,2.5,13.9,6.9c3.6,5.1-0.1,14.5-6.2,13.1
			c2.8,6.8-0.4,14.8-5.7,19.8c-5.3,5-12.4,7.7-19.2,10.3c-1.5,0.6-3.4,1.1-4.7,0.2c-0.9-0.6-1.3-1.7-1.6-2.8
			c-1.3-4.8-1.3-10-0.1-14.9c-2.9,3.3-9,0.9-10.6-3.2c-1.7-4.1-0.4-8.7,0.8-13c-5.1,8.9-20.2,9.3-25.7,0.5c-4.2,7.1-15.7,8-21.1,1.8
			c1.8-3,3.6-5.9,5.3-8.9c-7.3-1.1-15,1.8-19.9,7.3s-6.7,13.6-4.7,20.7c-1.8,0-3.5-0.1-5.3-0.1c4.1,4.6,8.4,9.5,9.2,15.6
			c0.9,6.1-3.5,13.2-9.6,12.8c-4.7-0.3-9.8-4.8-13.6-1.9c-1,0.8-1.8,2-3.1,2.2c-1.2,0.1-2.2-0.8-3.1-1.7c-4.1-4.2-8.2-8.5-12.3-12.7
			c1.3,2.5,2.6,4.9,3.8,7.4c-6.5-5.9-12.6-13.5-12.2-22.3C1727.7,1396.1,1733.6,1389.7,1739.8,1389.1z"/>
		<path class="st8" d="M1803.2,1347.1c1-1.1,2.7-1.6,4.2-1.3c0-0.2,0-0.4,0.1-0.5c0.6-1.2,2.1-1.6,3.5-1.6c2.1,0,4.2,0.8,6,2
			c-0.1-0.4-0.1-0.8-0.1-1.2c0.2-1.6,1.3-2.8,2.6-3.8c4-3.1,9.9-3.4,14.4-1.1c-0.6-1.4-0.4-3.3,0.9-4.2c2.1-1.5,5.2-0.3,6.7,1.8
			c-0.4-1.1,0.8-2.7,2.1-2.7c1.2,0,2.2,0.6,3.1,1.4c-0.4-1.1,0.4-2.8,1.7-3c1.8-0.3,3.4,0.9,4.7,2.1c0.3-0.7,0.5-1.3,0.8-2
			c0.6-1.5,6.5,3.3,6.9,3.8c3.3-2.3,6.7-2.3,10.4-1.5c1.3,0.3,8.7,3.6,4,5.4c5.9,1.1,11,5.7,12.5,11.5c2.3,1.1,4.8,2.3,6,4.6
			c0.8,1.6,0.5,3.8-0.7,5c2.7-0.5,6,1.6,8,3.8c1.1,1.2,2.2,2.6,2.3,4.3c0.1,1.6-1.4,3.4-3,3c2.6,1,4.2,4.2,3.4,6.9
			c-0.8,2.7-3.9,4.5-6.6,3.9c2,2.6,1.2,6.4-0.8,9c-2,2.5-5,4-7.9,5.4c-2.1,1-4.4,2.1-6.8,1.9c-3.1-0.3-5.8-3-6-6.1
			c-0.1-1.9,0.7-3.8,2-5.1c-1.9,0.3-4-0.3-5.1-1.9c-1.8-2.6-0.4-6.8,2.7-7.7c-3-0.5-6-1.6-8.7-3c-1.4-0.7-3-1.9-3.1-3.5
			c-0.2-2.5,2.9-3.7,5.3-4.2c-1.3-0.3-2.6-0.6-3.9-0.9c0.4-3.4,3.7-6,7.1-6.1c-0.3-0.3-0.5-0.7-0.4-1.1c3.4,1,7.4-0.1,9.7-2.8
			c-1.5,0.4-2.7-1.4-2.5-2.8c-1.6,2-4.4,3-7,2.4c-3-0.8-5.3-3.8-5.1-6.9c-3.1,0.7-6.2,1-9.4,0.9c0.6,3-2.7,6-5.6,5.2
			c-1.1-0.3-2.5-1-3.2-0.1c-0.4,0.4-0.4,1-0.5,1.5c-0.5,2.6-3.2,4.3-5.8,4.5c-2.6,0.2-5.2-0.7-7.6-1.6c1.3,1.8-0.4,4.5-2.6,4.9
			c-2.2,0.4-4.3-0.8-6.1-2c-1.8-1.2-3.7-2.7-5.9-2.9c-0.1,1.1-0.2,2.2-0.3,3.3c-4.1-0.9-8.1-2.5-11.6-4.7c-2.1-1.3-4.1-2.9-5.3-5.1
			C1801.6,1351.8,1801.5,1348.9,1803.2,1347.1z"/>
		<path class="st23" d="M1710.6,1372.7c-1.8-2.9-1.1-6.6-0.3-9.9c1.1-4.7,2.3-9.6,5.7-13c3.4-3.4,9.7-4.3,12.7-0.6
			c7-1.5,14-2.9,21-4.4c-0.3-1.6-0.1-3.3,0.6-4.8c1-0.1,2.1,0.6,2.4,1.5c-1.3-2.6-0.7-6,1.4-8c1.7-1.6,8-2.6,10.1-2.7
			c2.2,0,5.1,2,6.4,2.6c2.3,0.3,4.5,1.4,5.9,3.2c2.1,2.7,2.4,6.6,0.7,9.6c1.6,0.9,2.4,3.1,1.6,4.7c-0.8,1.7-2.9,2.5-4.6,1.8
			c1.9,2.7,1.6,6.6-0.6,9c-2.2,2.4-6.1,3-9,1.4c2.4,4.4-2.9,9.1-7.7,10.4c-3.1,0.9-6.8,1.2-9.4-0.9c-2.5-2-2.3-7.1,0.8-7.8
			c-1.8,0.5-3.4-1.6-3.2-3.5c0.3-1.9,1.7-3.3,3-4.6c-4.2-1.9-9.4-1.2-13.1,1.6c-3.7,2.8-5.6,7.7-4.9,12.2c2.1,0.3,3,2.8,3.6,4.8
			c2.9,10.2,11.4,19.7,22,19.9c0.5,2.4-1.4,4.9-3.7,5.4c6.7-0.3,13.1,5.8,13,12.6c-0.2,5.7-5,10.6-10.5,11.7
			c0.3,0.4,0.5,0.8,0.6,1.4c0.1,2.4-2.1,4.2-4.3,4.9c-2.2,0.8-4.7,0.9-6.8,2c-1.1,0.6-2.2,1.5-3.5,1.8c-3.6,0.7-5.5-3.4-6-7.3
			c-0.5,1.1-1.8,2-3.1,1.9c-2.1-0.2-3.6-2-4.8-3.7c-2.2-3-4.2-6.2-4.9-9.8c-0.4-2.4-0.1-5,1.1-7.1c-0.5,0.1-1,0.1-1.4,0
			c-1.8-0.5-3.1-2-4.2-3.4c-1.5-1.8-3-3.8-3.5-6.1c-0.6-2.3,0.1-5,2.1-6.3c-4.6-1.9-6.2-8.8-2.8-12.6
			C1709.9,1379.2,1708.9,1375.2,1710.6,1372.7z"/>
	</g>
	<path class="st5" d="M2545,1608.3c0,0-27.5-2.6-21.3-14.1c-10.8,3.1-13.8,10-13.8,10c3.8-17.7-0.6-36.1-9.2-40.8
		c1.5,16.1-6.2,36.8-6.2,36.8c-9.4-9.7-3.1-28.3-3.1-28.3c-13.2,15.3-13.7,23.5-13.7,23.5c-3.9-7.4-16.9-15.9-16.9-15.9
		c5.4,10.8-37.5,28.8-54.4,28.8C2462.1,1619.4,2520,1621,2545,1608.3z"/>
	<path class="st5" d="M2806.7,905.8c-10-11.1-26.4-39.6-28-48.3c2.7-2.2,2.7-2.2,2.7-2.2c5.5,12.1,20.9,40.7,26.4,46.1
		c3.8-5.5,4.4-34.6,4.4-34.6c2.7-0.5,1.6-2.7,2.7-0.5c0.5,18.1-1.1,35.2-1.1,38.5c3.5,7,8.3,23.4,11.5,36.9c4-34.1,5.6-71.4,0.7-104
		l3.1-1c5.9,58.6,3.6,116.4-3.3,173.8c14.9-12.2,43.4-30.8,54.4-43.5c0,0,0,0,2.4,6.5c-10,0.7-43.7,37.4-58.4,49.1
		c-1.3,9.8-2.7,19.6-4.2,29.4l-15.3-3.5c0,0,11.2-39.8,18.3-90.3C2823.2,957.9,2812.8,913,2806.7,905.8z"/>
	
		<linearGradient id="SVGID_17_" gradientUnits="userSpaceOnUse" x1="735.0642" y1="1725.7913" x2="735.0642" y2="1266.9205" gradientTransform="matrix(-1 0 0 1 2839.4019 0)">
		<stop  offset="3.030300e-02" style="stop-color:#0D0F26"/>
		<stop  offset="0.1963" style="stop-color:#121228"/>
		<stop  offset="0.3938" style="stop-color:#201A2F"/>
		<stop  offset="0.6074" style="stop-color:#38273A"/>
		<stop  offset="0.8307" style="stop-color:#5A3949"/>
		<stop  offset="1" style="stop-color:#784A57"/>
	</linearGradient>
	<path class="st24" d="M2107.6,1483.9c4.7,13.7,21.3,20.2,32,12.5c11.4,4,25.2-6.6,26.7-20.4c12.6-6.5,18.1-28,10.7-41.6
		c7-12,2.5-31.4-8.7-37.6c4.6-16.1-5.7-36.4-20-39.2c5.6-14.9-2.8-35.3-16.3-39.4c6.2-7.6,4.9-22.1-2.4-28c3.7-8.3-0.4-20.5-8-23.5
		c3.3-12.5-5-27.9-16-29.8c-2.2-6.2-9.8-9-14.7-5.5c-9.7,5.5-13.5,22.5-7.3,32.9c-12.1,4.5-19,23.5-13.3,36.8
		c-12.4,5.9-18.2,26.6-11.3,40c-13.2,7.5-18.4,30.6-10,44.7c-16.9,10-23.1,40-12,58c-9.9,8-11.6,27.4-3.3,37.6
		c1.7,8.2,10.7,13.5,17.3,10.2c10.8,6.4,26.4-1.3,30-14.9C2085.7,1487.5,2099.5,1491.1,2107.6,1483.9z"/>
	
		<linearGradient id="SVGID_18_" gradientUnits="userSpaceOnUse" x1="219.102" y1="1732.9041" x2="219.102" y2="1536.5948" gradientTransform="matrix(-1 0 0 1 2839.4019 0)">
		<stop  offset="3.030300e-02" style="stop-color:#0D0F26"/>
		<stop  offset="0.1963" style="stop-color:#121228"/>
		<stop  offset="0.3938" style="stop-color:#201A2F"/>
		<stop  offset="0.6074" style="stop-color:#38273A"/>
		<stop  offset="0.8307" style="stop-color:#5A3949"/>
		<stop  offset="1" style="stop-color:#784A57"/>
	</linearGradient>
	<path class="st25" d="M2357.8,1676.5l525,56.4v-174.1c-5.8-13.2-25-18.9-37.1-11c-18.2-17.5-53.1-14-67.4,6.7
		c-23.1-4.9-49.1,15.2-50.2,38.7c-14.7-5-33.3,6.2-35.9,21.5c-12.8-10.9-35.8-7.2-44.5,7.2c-15.2-9.5-38.9-2.1-45.9,14.3
		c-14.1-13.3-40.8-10.3-51.7,5.7c-11.7-9.6-32.5-5.9-40.2,7.2c-12-15.7-39.5-17.2-53.1-2.9c-14.3-11-38.8-5.8-47.4,10
		C2391.3,1646.6,2364.6,1657,2357.8,1676.5z"/>
	<g>
		<path class="st3" d="M2112.6,1563.9c1.4-47.7,4.4-94.8,22.2-132.3l-6.2-4.5c-14.3,39.1-22,82.6-25.7,128.8L2112.6,1563.9z"/>
		<path class="st3" d="M2106.8,1563.9h-10.2c0.1-57.7-3.7-115.8-12.5-174.3l5.5-0.9C2100.8,1447.2,2105.5,1505.5,2106.8,1563.9z"/>
	</g>
</g>
<linearGradient id="SVGID_19_" gradientUnits="userSpaceOnUse" x1="2243.4424" y1="1558.8994" x2="2243.4424" y2="1313.5956" gradientTransform="matrix(-1 0 0 1 2839.4019 0)">
	<stop  offset="3.030300e-02" style="stop-color:#0D0F26"/>
	<stop  offset="0.1963" style="stop-color:#121228"/>
	<stop  offset="0.3938" style="stop-color:#201A2F"/>
	<stop  offset="0.6074" style="stop-color:#38273A"/>
	<stop  offset="0.8307" style="stop-color:#5A3949"/>
	<stop  offset="1" style="stop-color:#784A57"/>
</linearGradient>
<path class="st26" d="M-17.6,1558.9c0,0,3.6-1.4,9.7-3.9l4.7-8.5l1.3,2.3l1.9-3.4l2.2,4l4.1-12.5l3.5,10.6l3.5-10.6l2.8,8.6
	c3.9-1.5,8-3.1,12.2-4.8l2.8-7.3l2.1,5.5c4.2-1.6,8.4-3.3,12.8-5l2.5-6.7l1.9,5c0,0,0,0,0,0l2.4-9.2l1.6,6.2l2-6.2l1.7,5.1l2.5-9.6
	l2.3,8.9c5.1-1.9,10.1-3.8,15.1-5.7l4-15.2l3.3,12.4c0.1,0,0.1-0.1,0.2-0.1l2.8-10.7l2.3,8.8c5.1-1.9,10-3.7,14.7-5.4l3-11.3
	l1.3,4.9l1.3-4.9l1.3,4.8l2-7.7l2.7,10.1c2.9-1,5.5-1.9,7.9-2.7l5.1-19.4l4.3,16.4c2-0.6,3.7-1,5-1.3c1.6-0.3,3.7-0.7,5.9-1.2
	l2.5-9.3l2.2,8.4c0,0,0.1,0,0.1,0l2.9-11.1l2.6,10c0.5-0.1,0.9-0.2,1.4-0.3l3.8-14.4l3.3,12.5l3.8-7.6l3.2,6.4
	c0.6-0.1,1.1-0.2,1.7-0.4l5.5-11l4.4,8.8c2.3-0.5,4.7-1.1,7-1.6l4.1-8.2l2.8,5.7l4-15.3l3.8,14.3c0.7-0.2,1.3-0.3,2-0.5l6.4-24.4
	l3.8,14.4l2.2-4.4l4.9,9.9c2.8-0.8,5.5-1.6,8.1-2.4l10.2-20.4l5.2,10.3l2.7-10.3l1.8,6.7l3.7-14l3.9,14.9l2.9-10.8l2.4,9.2l3.5-13.2
	l2.3,8.8l4-15.2l2.3,8.9l5.5-21l3.6,13.6l3.2-12.1l2.9,11.2l7.4-14.9l2.4,4.8l3.1-11.7l2.1,7.9l4-15.3l2.3,8.8l4.3-16.4l2.5,9.5
	l2.9-11.1l1.5,5.8l3.3-12.4l3,11.2l4-7.9l2.1,4.3l3.2-12.1l2.1,7.8l1.4-5.5l1.8,6.8c0.1,0,0.1,0,0.2,0c0.1,0,0.3,0,0.5,0l3.4-12.9
	l3.6,13.7c0,0,0.1,0,0.1,0l2.6-10l2.7,10.4l2.5-9.5l1.7,6.3l2.5-9.4l3.8,14.3c0.2,0,0.4,0.1,0.6,0.1l2-7.6l2.2,8.2
	c0.1,0,0.2,0,0.3,0l2.8-10.5l1.9,7.2l2.3-8.6l2.4,9.3l1.3-4.8l1,4l1.6-6l2.5,9.4l2.8-10.4l3.4,13l1.8-6.9l1.7,6.4l2.7-10.2l1.5,5.8
	l3.1-11.6l3,11.4l1.8-6.8l2.7,10.4l2.7-10.4l2.2,8.3l4.4-16.6l3.4,12.7l4.5-9l2.4,4.8l7-14l4.2,8.4l3-6l2.8,5.6l4.3-16.2l3.3,12.7
	l2.1-8.1l2,7.7l0.4-0.2l3.2-12.2l1.4,5.4l3.2-12l3.7,14l0.2-0.1l2.5-9.3l1.7,6.6l1.5-5.8l1.3,4.9l3.3-12.5l1.9,7.3l1.3-5.1l1.6,6.2
	l1.6-6.2l1.4,5.4l3.2-12l2.7,10.3l0.5-0.2l3.1-11.7l2.5,9.4l0.5-0.2l2.7-10.4l1.1,4.3l2.6-9.8l2.7,10.2l3.6-13.8l1.2,4.7l2.8-10.6
	l3.4,12.9l4.5-9l2.7,5.4l5.5-11l2.5,5.1l6-12l2.7,5.3l1.4-2.7l2.1,4.1l4.3-8.5l1.8,3.7l1.4-5.4l1.9,7.3l2.7-10.1l2.1,8.1l2-7.7
	l1.3,5l2.4-9l1.9,7.2l6-11.9l2.9,5.9l1.7-3.4l2,4.1l4.1-8.3l2.1,4.2l3.1-6.2l2,4l3.2-6.3l3.2,6.4l2-4.1l0.9,1.7l3.5-7l6.5,13.1
	l2-4.1l2,4.1l2.6-5.3l4.7,9.4l2-4l2.6,5.1l4-8l5.8,11.7l2-7.7l2.8,10.7c0.4,0.1,0.8,0.3,1.2,0.4l1.8-3.6l1.7,3.3l2.9-5.8l3.9,7.9
	l2.5-5l5.1,10.2c0.1,0,0.2,0.1,0.3,0.1l2.5-5l3.1,6.1l2.3-4.5l1.4,2.7l2-3.9l3.5,7l1.4-2.8l2.8,5.6l1.4-5.1l1.1,4.1l2.6-10l3.6,13.7
	l1.1-4.4l2.6,9.7c0.1,0,0.1,0.1,0.2,0.1l1.3-5l1.4,5.4l2.4-9l2.2,8.5l2.4-9.2l3.1,11.9l1.2-4.4l2.6,9.7c0.1,0.1,0.2,0.1,0.3,0.2
	l2.5-9.4l2.9,11.1l2-7.4l1.6,6l3.9-14.8l5.2,19.6l1.5-5.7l1.7,6.4l1.1-4.1l2.9,10.9l0.9-3.5l1.5,5.5l1.1-4l1.9,7.1l2.1-7.8l1.8,6.8
	l1-3.6l1.6,6l1.8-6.7l3.8,14.2c0,0,0.1,0.1,0.1,0.1l1.8-6.8l2.4,9.1l1.5-5.9l2,7.6l1.1-4.1l1.8,6.8l1.2-4.6l0.4,1.4l1.4-5.3l1.9,7.3
	l0.6-2.2l2.3,8.8l1.3-4.8l0.5,2.1l2.1-7.9l2.3,8.6l0.7-2.8l3.1,11.8c0.5,0.3,1,0.6,1.6,1l1.3-5l1.3,4.8l1.1-4.2l1.9,7.2l1-3.7
	l1.4,5.1l2.1-8l1.9,7.2l2.5-9.6l4.4,16.8c0.2,0.1,0.4,0.2,0.5,0.3l1.8-7l2.4,9.2c0.2,0.1,0.3,0.2,0.5,0.2l0.9-3.6l1.2,4.6
	c0.2,0.1,0.4,0.2,0.7,0.3l2.5-9.6l2.6,9.9l0.8-3.2l1.7,6.5c1.7,0.7,3.4,1.5,5.1,2.1l2.4-9.2l3,11.3c0.2,0.1,0.4,0.1,0.6,0.2
	l2.9-10.9l1.5,5.6l3.1-11.8l5.6,21.3c0.1,0,0.2,0.1,0.3,0.1l3.4-13l3.9,14.8c0.8,0.2,1.7,0.4,2.5,0.5l3.6-8l1.4,3.2l1.4-5.1l3,11.4
	c0,0,0.1,0,0.1,0l5.9-13.3l5.4,12l2.2-4.9l3.1,7l3.5-7.8l3.8,8.5c0.4,0,0.8,0,1.2,0.1l3.4-13.1l2.5,9.6l2.4-9l2.4,9.1l2.9-10.9
	l3.2,12.2l3.5-13.2l2.2,8.5l0.6-2.4l3.2,12.2c0.2,0,0.5,0.1,0.7,0.1l3.2-12.3l2.4,9.2l4-15.3l4.7,17.7l4.1-9.2l5.6,12.6l3.4-7.7
	l6,13.5c0.9,0.3,1.7,0.6,2.6,0.9l2.4-5.3l2.8,6.3l1.7-3.9l2,4.6l3.5-7.8l6.2,13.8c1.4,0.7,2.8,1.3,4.2,2l1.7-6.6l2.3,8.6
	c0.3,0.2,0.6,0.3,0.9,0.5l2.8-10.6l3.3,12.4l3.2-7.1l6.3,14l1.6-6.1l2.3,8.6c0.7,0.5,1.5,0.9,2.2,1.4l1.1-4.2l1.6,5.9
	c0.5,0.3,0.9,0.6,1.4,0.9l1-3.6l1.4,5.2c0.1,0.1,0.2,0.1,0.3,0.2l1.8-6.7l2.1,7.9l2.4-9.1l3.7,13.9c0.1,0,0.1,0.1,0.2,0.1l3.3-12.4
	l4.3,16.3c0.4,0.2,0.8,0.4,1.2,0.6l5.7-21.7l6.9,26.3l2.3-8.9l2,7.5l3.5-13.2l4.4,16.7l2-7.7l1.7,6.6l1.6-5.9l1.4,5.2l1.1-4.3
	l2.1,7.8l1.9-7.2l2,7.7l3.2-12.2l2.8,10.8l3-6.1l3.4,7l1.5-3.2l3,6.2c0.6,0,1.1,0.1,1.7,0.1l1.6-3.4l1.8,3.7
	c1.2,0.1,2.5,0.3,3.7,0.4l2.4-5.1l1.9,3.9l2.6-5.4l1.9,4l2-7.5l3.4,12.8c0,0,0,0,0.1,0l3.1-11.9l3.2,12.2l4.6-17.6l5.5,21l2.3-8.8
	l3.4,12.9c0.2,0.1,0.4,0.1,0.5,0.2l2-7.4l2.4,9l2.6-10l3,11.5l3-11.5l3.1,11.6l1.2-2.5l2.7,5.7l0.9-7.2l1.2,10.3c0,0,0,0,0,0l3-11.3
	l3.7,13.8l4.2-16l5.6,21.2c0,0,0,0,0.1,0l3.2-12.3l3.9,14.6l4-15.2l5.4,20.5l5.4-12.6l4.3,10l2-4.3l8.5,17.9
	c1.1,0.6,1.7,0.9,1.7,0.9H-17.6z"/>
<linearGradient id="SVGID_20_" gradientUnits="userSpaceOnUse" x1="1035.6765" y1="1501.688" x2="2376.3926" y2="1501.688" gradientTransform="matrix(-1 0 0 1 2839.4019 0)">
	<stop  offset="3.030300e-02" style="stop-color:#0D0F26"/>
	<stop  offset="0.1963" style="stop-color:#121228"/>
	<stop  offset="0.3938" style="stop-color:#201A2F"/>
	<stop  offset="0.6074" style="stop-color:#38273A"/>
	<stop  offset="0.8307" style="stop-color:#5A3949"/>
	<stop  offset="1" style="stop-color:#784A57"/>
</linearGradient>
<path class="st27" d="M463,1562.1c0,0,127.8-66.7,242.2-90.8l4.6-19l2.7,11.1l5.4-22.2l5,20.6l3.9-16.2l2.5,10.3l2.1-8.4l2.5,10.3
	l1.3-5.5l3.2,13.2c4.6-0.6,9.2-1.1,13.8-1.6c32.2-3,57.4-1.4,80.4,2.2l4.7-19.4l5.1,21l3-12.4l3.3,13.6c0.1,0,0.3,0.1,0.4,0.1
	l2.4-9.7l2.6,10.7c0.4,0.1,0.8,0.2,1.1,0.2l4.4-18l4.9,20c15.9,3.6,31.8,7.5,49.5,10.9l3-12.3l3.3,13.4c0.4,0.1,0.8,0.2,1.3,0.2
	l1.7-7.2l1.9,7.8c33.2,5.7,73.6,9,131.4,4.5l3.9-15.9l3.2,13.1l4.1-17l2.9,12l5.2-21.3l4.4,18.1l3.7-15.3l5.6,23.1
	c181.9-20.2,344.3-57.4,497-2.5l5.7-23.4l6.8,27.9c0.1,0,0.2,0.1,0.2,0.1l3-12.2l3.1,12.6l5-20.8l4.9,20.1l4.4-18.3l4.8,19.9
	l3.3-13.5l5.3,21.8l2.8-11.5l4,16.6c116.4,42,163.6,58.8,163.6,58.8H463z"/>
<linearGradient id="SVGID_21_" gradientUnits="userSpaceOnUse" x1="2165.688" y1="1997.0264" x2="5106.562" y2="1997.0264" gradientTransform="matrix(1 0 0 1 -2161.562 0)">
	<stop  offset="3.030300e-02" style="stop-color:#26294D"/>
	<stop  offset="1" style="stop-color:#5C4047"/>
</linearGradient>
<path class="st28" d="M2945,2316.5c0,0-2319.4,121.5-2940.9,121.5v-881.9c0,0,780.1,73.9,1328.8,211.2
	c113.3,28.4,248.7,68.5,392.2,114.3c2.4,0.7,4.8,1.6,7.4,2.3c5.9,1.9,11.9,3.8,17.8,5.7c2.6,0.8,5.4,1.7,8.2,2.6
	C2302.4,2067.6,2945,2316.5,2945,2316.5z"/>
</svg>
