<?xml version="1.0" encoding="UTF-8"?>
<svg width="16px" height="11px" viewBox="0 0 16 11" version="1.1" xmlns="http://www.w3.org/2000/svg" xmlns:xlink="http://www.w3.org/1999/xlink">
    <title>Shape</title>
    <g id="Page-1" stroke="none" stroke-width="1" fill="none" fill-rule="evenodd">
        <g id="Artboard" transform="translate(-378.000000, -1563.000000)" fill="#386FF9">
            <path d="M386.523503,1588.46366 C397.666262,1588.46366 406.699253,1579.43067 406.699253,1568.28791 C406.699253,1557.14515 397.666262,1548.11216 386.523503,1548.11216 C375.380744,1548.11216 366.347753,1557.14515 366.347753,1568.28791 C366.347753,1579.43067 375.380744,1588.46366 386.523503,1588.46366 Z M386.523503,1548.11216 C397.666262,1548.11216 406.699253,1557.14515 406.699253,1568.28791 C406.699253,1579.43067 397.666262,1588.46366 386.523503,1588.46366 C375.380744,1588.46366 366.347753,1579.43067 366.347753,1568.28791 C366.347753,1557.14515 375.380744,1548.11216 386.523503,1548.11216 Z M386.545695,1560.68066 C386.177389,1560.68066 385.878861,1560.98346 385.878861,1561.35692 L385.878861,1572.91568 L382.749486,1569.74221 C382.488993,1569.47814 382.066807,1569.47814 381.806421,1569.74221 C381.545929,1570.00632 381.545929,1570.43447 381.806421,1570.69859 L386.074163,1575.02651 C386.204276,1575.15852 386.375039,1575.22457 386.545695,1575.22457 C386.716352,1575.22457 386.886955,1575.15852 387.017228,1575.02651 L391.28497,1570.69848 C391.545408,1570.43437 391.545408,1570.00622 391.28497,1569.7421 C391.024584,1569.47798 390.602291,1569.47798 390.341905,1569.7421 L387.21253,1572.91568 L387.21253,1561.35692 C387.21253,1560.98346 386.913895,1560.68066 386.545695,1560.68066 Z" id="Oval-117" transform="translate(386.523503, 1568.287914) rotate(-90.000000) translate(-386.523503, -1568.287914) "></path>
        </g>
    </g>
</svg>