<?xml version="1.0" encoding="UTF-8"?>
<svg width="40px" height="40px" viewBox="0 0 40 40" version="1.1" xmlns="http://www.w3.org/2000/svg" xmlns:xlink="http://www.w3.org/1999/xlink">
    <title>fa-solid:info-circle</title>
    <g id="Page-1" stroke="none" stroke-width="1" fill="none" fill-rule="evenodd">
        <g id="fa-solid:info-circle" fill="#386FF9" fill-rule="nonzero">
            <path d="M20,0 C8.95508065,0 0,8.95830645 0,20 C0,31.0481452 8.95508065,40 20,40 C31.0449194,40 40,31.0481452 40,20 C40,8.95830645 31.0449194,0 20,0 Z M20,8.87096774 C21.8706452,8.87096774 23.3870968,10.3874194 23.3870968,12.2580645 C23.3870968,14.1287097 21.8706452,15.6451613 20,15.6451613 C18.1293548,15.6451613 16.6129032,14.1287097 16.6129032,12.2580645 C16.6129032,10.3874194 18.1293548,8.87096774 20,8.87096774 Z M24.516129,29.3548387 C24.516129,29.8892742 24.0828226,30.3225806 23.5483871,30.3225806 L16.4516129,30.3225806 C15.9171774,30.3225806 15.483871,29.8892742 15.483871,29.3548387 L15.483871,27.4193548 C15.483871,26.8849194 15.9171774,26.4516129 16.4516129,26.4516129 L17.4193548,26.4516129 L17.4193548,21.2903226 L16.4516129,21.2903226 C15.9171774,21.2903226 15.483871,20.8570161 15.483871,20.3225806 L15.483871,18.3870968 C15.483871,17.8526613 15.9171774,17.4193548 16.4516129,17.4193548 L21.6129032,17.4193548 C22.1473387,17.4193548 22.5806452,17.8526613 22.5806452,18.3870968 L22.5806452,26.4516129 L23.5483871,26.4516129 C24.0828226,26.4516129 24.516129,26.8849194 24.516129,27.4193548 L24.516129,29.3548387 Z" id="Shape"></path>
        </g>
    </g>
</svg>