<?xml version="1.0" encoding="UTF-8"?>
<svg width="21px" height="23px" viewBox="0 0 21 23" version="1.1" xmlns="http://www.w3.org/2000/svg" xmlns:xlink="http://www.w3.org/1999/xlink">
    <title>Group</title>
    <g id="Page-1" stroke="none" stroke-width="1" fill="none" fill-rule="evenodd">
        <g id="bi:discord" transform="translate(-1.000000, 0.000000)" fill="#7B8BA0" fill-rule="nonzero">
            <g id="Group" transform="translate(1.437500, 0.000000)">
                <path d="M7.981,9.6485 C7.3255,9.6485 6.808,10.2235 6.808,10.925 C6.808,11.6265 7.337,12.2015 7.981,12.2015 C8.6365,12.2015 9.154,11.6265 9.154,10.925 C9.1655,10.2235 8.6365,9.6485 7.981,9.6485 Z M12.1785,9.6485 C11.523,9.6485 11.0055,10.2235 11.0055,10.925 C11.0055,11.6265 11.5345,12.2015 12.1785,12.2015 C12.834,12.2015 13.3515,11.6265 13.3515,10.925 C13.3515,10.2235 12.834,9.6485 12.1785,9.6485 Z" id="Shape"></path>
                <path d="M17.7675,0 L2.3575,0 C1.058,0 0,1.058 0,2.369 L0,17.917 C0,19.228 1.058,20.286 2.3575,20.286 L15.3985,20.286 L14.789,18.1585 L16.261,19.527 L17.6525,20.815 L20.125,23 L20.125,2.369 C20.125,1.058 19.067,0 17.7675,0 Z M13.3285,15.019 C13.3285,15.019 12.9145,14.5245 12.5695,14.0875 C14.076,13.662 14.651,12.719 14.651,12.719 C14.1795,13.0295 13.731,13.248 13.3285,13.3975 C12.7535,13.639 12.2015,13.8 11.661,13.892 C10.6760829,14.07334 9.66598744,14.0694401 8.6825,13.8805 C8.10510949,13.7675214 7.53925517,13.6019994 6.992,13.386 C6.70353179,13.2750713 6.42303631,13.1444296 6.1525,12.995 C6.118,12.972 6.0835,12.9605 6.049,12.9375 C6.026,12.926 6.0145,12.9145 6.003,12.903 C5.796,12.788 5.681,12.7075 5.681,12.7075 C5.681,12.7075 6.233,13.6275 7.6935,14.0645 C7.3485,14.5015 6.923,15.019 6.923,15.019 C4.3815,14.9385 3.4155,13.271 3.4155,13.271 C3.4155,9.568 5.0715,6.5665 5.0715,6.5665 C6.7275,5.3245 8.303,5.35890443 8.303,5.35890443 L8.418,5.497 C6.348,6.095 5.3935,7.0035 5.3935,7.0035 C5.3935,7.0035 5.6465,6.8655 6.072,6.67 C7.3025,6.1295 8.28,5.98 8.6825,5.9455 C8.7515,5.934 8.809,5.9225 8.878,5.9225 C10.872215,5.65258317 12.9003543,6.03159926 14.6625,7.0035 C14.6625,7.0035 13.754,6.141 11.799,5.543 L11.96,5.35890443 C11.96,5.35890443 13.5355,5.3245 15.1915,6.5665 C15.1915,6.5665 16.8475,9.568 16.8475,13.271 C16.8475,13.271 15.87,14.9385 13.3285,15.019 L13.3285,15.019 Z" id="Shape"></path>
            </g>
        </g>
    </g>
</svg>