<?xml version="1.0" encoding="UTF-8"?>
<svg width="23px" height="20px" viewBox="0 0 23 20" version="1.1" xmlns="http://www.w3.org/2000/svg" xmlns:xlink="http://www.w3.org/1999/xlink">
    <title>Path</title>
    <g id="Page-1" stroke="none" stroke-width="1" fill="none" fill-rule="evenodd">
        <g id="akar-icons:twitter-fill" transform="translate(-1.000000, -2.000000)" fill="#7B8BA0" fill-rule="nonzero">
            <g id="Group" transform="translate(0.937000, 2.747326)">
                <path d="M22.706,2.18967389 C21.871,2.55967389 20.974,2.80967389 20.031,2.92267389 C21.0040006,2.34046612 21.731943,1.42414016 22.079,0.344673887 C21.1648453,0.887663355 20.1643462,1.26986889 19.121,1.47467389 C17.6783941,-0.0656281411 15.3807269,-0.444177693 13.5202382,0.551926733 C11.6597495,1.54803116 10.7009164,3.67010882 11.183,5.72467389 C7.4369583,5.53658683 3.94683892,3.76717408 1.581,0.856673887 C1.181,1.54667389 0.951,2.34667389 0.951,3.19867389 C0.950093572,4.75640141 1.72758275,6.21156696 3.023,7.07667389 C2.28327631,7.05313638 1.559873,6.85325764 0.913,6.49367389 L0.913,6.55367389 C0.912846153,8.77164051 2.4759754,10.6823642 4.65,11.1216739 C3.96378354,11.3073888 3.24433757,11.3347441 2.546,11.2016739 C3.15592212,13.0993442 4.90505677,14.3991377 6.898,14.4356739 C5.24783309,15.7310848 3.20988723,16.4337641 1.112,16.4306739 C0.740381052,16.4307754 0.369076292,16.4090714 -7.77156117e-16,16.3656739 C2.12947614,17.7348487 4.60834042,18.4614961 7.14,18.4586821 C15.71,18.4586821 20.395,11.3606739 20.395,5.20467389 C20.395,5.00467389 20.39,4.80267389 20.381,4.60267389 C21.2922915,3.94364833 22.0789103,3.12756944 22.704,2.19267389 L22.706,2.18967389 L22.706,2.18967389 Z" id="Path"></path>
            </g>
        </g>
    </g>
</svg>