<?xml version="1.0" encoding="UTF-8"?>
<svg width="23px" height="23px" viewBox="0 0 23 23" version="1.1" xmlns="http://www.w3.org/2000/svg" xmlns:xlink="http://www.w3.org/1999/xlink">
    <title>Shape</title>
    <g id="Page-1" stroke="none" stroke-width="1" fill="none" fill-rule="evenodd">
        <g id="bx:bxl-discourse" transform="translate(-3.000000, -3.000000)" fill="#7B8BA0" fill-rule="nonzero">
            <path d="M14.5983889,3 C8.3015,3 3,8.06 3,14.2993889 L3,26 L14.5958333,25.9872222 C20.8927222,25.9872222 26,20.7355556 26,14.4961667 C26,8.2555 20.8888889,3 14.5983889,3 Z M19.6072778,19.4309444 C17.5174869,21.4121684 14.4394888,21.9382832 11.8102778,20.7636667 L7.21666667,21.7922778 L8.49572222,17.7136111 C7.30820142,15.5464815 7.36172707,12.9115597 8.63627778,10.7944444 C9.92169621,8.66888492 12.2255465,7.37081819 14.7095556,7.37255381 L14.7095556,7.37383333 L14.7172222,7.37383333 C17.592646,7.36865983 20.1847603,9.10549259 21.2735,11.7668333 C22.3492852,14.4209085 21.6878973,17.46309 19.6072778,19.4309444 L19.6072778,19.4309444 Z" id="Shape"></path>
        </g>
    </g>
</svg>