<?xml version="1.0" encoding="UTF-8"?>
<svg width="75px" height="60px" viewBox="0 0 75 60" version="1.1" xmlns="http://www.w3.org/2000/svg" xmlns:xlink="http://www.w3.org/1999/xlink">
    <title>KK</title>
    <g id="FInal-Design" stroke="none" stroke-width="1" fill="none" fill-rule="evenodd">
        <g id="Desktop-HD-Designs-Copy-5" transform="translate(-152.000000, -4537.000000)" fill="#A5A9BA" fill-rule="nonzero">
            <g id="KK" transform="translate(152.000000, 4537.000000)">
                <path d="M33.4265432,20.7477981 C33.4265432,19.3191792 33.2217977,18.051856 32.8350562,16.9458284 C32.4483147,15.8398009 31.9023266,14.8720268 31.1743426,14.1116328 C30.469108,13.3281967 29.604627,12.7521407 28.6036489,12.3373803 C27.6026709,11.92262 26.5106948,11.7382821 25.3277207,11.7382821 C24.0764981,11.7382821 22.893524,11.9687045 21.847047,12.4065071 C20.7778204,12.8443096 19.8678403,13.4664501 19.0943573,14.2729285 C18.3208742,15.0794069 17.7066377,16.0241388 17.2743972,17.1532086 C16.8421566,18.2592361 16.6146616,19.4804749 16.6146616,20.8169248 C16.6146616,22.0612058 16.8194071,23.2363601 17.2061487,24.3423876 C17.6156397,25.4484151 18.1843772,26.393147 18.9123613,27.2226677 C19.6630948,28.0291461 20.5503254,28.6743288 21.619552,29.1582159 C22.6887785,29.6421029 23.8945021,29.8725253 25.2139732,29.8725253 C26.8064383,29.8725253 28.2169074,29.6190607 29.422631,29.0890891 C30.6283546,28.5591176 31.7430801,27.637428 32.7668077,26.300978 L30.6283546,24.5958522 C29.9458695,25.4484151 29.195136,26.0935979 28.3306549,26.5544427 C27.4889233,26.9922453 26.4424463,27.2226677 25.2139732,27.2226677 C24.4404901,27.2226677 23.7352556,27.0844142 23.0755201,26.7848651 C22.4157845,26.485316 21.847047,26.0935979 21.3693074,25.5866686 C20.8915679,25.0797393 20.4820769,24.5036833 20.1863334,23.8124161 C19.8905898,23.1441911 19.7085938,22.4298816 19.6630948,21.69253 L33.4037937,21.69253 L33.4037937,20.7477981 L33.4265432,20.7477981 Z M19.9770379,19.1053184 C20.1809267,17.5583213 20.7472844,16.3255581 21.7214197,15.4070286 C22.695555,14.4884991 23.9641963,14.0050625 25.5273435,14.0050625 C27.0904908,14.0050625 28.3364778,14.4643272 29.2199958,15.4070286 C30.1035139,16.3255581 30.5792544,17.5583213 30.624563,19.1053184 L19.9770379,19.1053184 Z" id="Shape"></path>
                <path d="M52.9653255,20.7477981 C52.9653255,19.3191792 52.76058,18.051856 52.3738384,16.9458284 C51.9870969,15.8398009 51.4411089,14.8720268 50.7131248,14.1116328 C50.0078903,13.3281967 49.1434092,12.7521407 48.1424312,12.3373803 C47.1414531,11.92262 46.049477,11.7382821 44.8665029,11.7382821 C43.6152804,11.7382821 42.4323063,11.9687045 41.3858292,12.4065071 C40.3166026,12.8443096 39.4066226,13.4664501 38.6331395,14.2729285 C37.8596565,15.0794069 37.2454199,16.0241388 36.8131794,17.1532086 C36.3809389,18.2592361 36.1534439,19.4804749 36.1534439,20.8169248 C36.1534439,22.0612058 36.3581894,23.2363601 36.7449309,24.3423876 C37.1544219,25.4484151 37.7231595,26.393147 38.4511435,27.2226677 C39.2018771,28.0291461 40.0891076,28.6743288 41.1583342,29.1582159 C42.2275608,29.6421029 43.4332843,29.8725253 44.7527554,29.8725253 C46.3452205,29.8725253 47.7556896,29.6190607 48.9614132,29.0890891 C50.1671368,28.5591176 51.2818624,27.637428 52.3055899,26.300978 L50.1671368,24.5958522 C49.4846518,25.4484151 48.7339182,26.0935979 47.8694371,26.5544427 C47.0277056,26.9922453 45.9812285,27.2226677 44.7527554,27.2226677 C43.9792724,27.2226677 43.2740378,27.0844142 42.6143023,26.7848651 C41.9545667,26.485316 41.3858292,26.0935979 40.9080897,25.5866686 C40.4303501,25.0797393 40.0208591,24.5036833 39.7251156,23.8124161 C39.4293721,23.1441911 39.2473761,22.4298816 39.2018771,21.69253 L52.942576,21.69253 L52.942576,20.7477981 L52.9653255,20.7477981 Z M38.9554241,19.1053184 C39.1593129,17.5583213 39.7256706,16.3255581 40.6998059,15.4070286 C41.6739412,14.4884991 42.9425824,14.0050625 44.5057297,14.0050625 C46.068877,14.0050625 47.314864,14.4643272 48.198382,15.4070286 C49.0819001,16.3255581 49.5576405,17.5583213 49.6029492,19.1053184 L38.9554241,19.1053184 Z" id="Shape"></path>
                <path d="M56.6797075,12.2623221 L56.6797075,37.650349 L59.5381536,37.650349 L59.5381536,26.3033621 L59.6067563,26.3033621 C60.1327104,27.2850934 60.9788104,28.1070079 62.1450564,28.7691058 C63.3113024,29.4312036 64.6376213,29.773668 66.192616,29.773668 C67.3817295,29.773668 68.5022404,29.5453584 69.5541485,29.0887392 C70.6060567,28.63212 71.4978918,28.0156841 72.2753892,27.2166005 C73.0528865,26.4175169 73.6474433,25.4586166 74.0819271,24.3627306 C74.5164109,23.2668445 74.7450866,22.0796347 74.7450866,20.77827 C74.7450866,19.4997362 74.5164109,18.2896954 74.0819271,17.1938093 C73.6474433,16.0979233 73.0300189,15.1618539 72.2525216,14.3399394 C71.4750243,13.5408558 70.537454,12.901589 69.4169431,12.4678007 C68.3192998,12.0111815 67.0844512,11.7828719 65.7352646,11.7828719 C64.5004159,11.7828719 63.3570375,12.0340125 62.3279969,12.5591246 C61.2989564,13.0614057 60.3842536,13.7919964 59.6067563,14.7052348 L59.5381536,14.7052348 L59.5381536,12.2623221 L56.6797075,12.2623221 Z M59.9050594,17.963516 C60.1734837,17.1726039 60.5761201,16.4980025 61.1129686,15.9164495 C61.6274484,15.3348965 62.2537717,14.8696541 62.9919384,14.5439844 C63.7077365,14.2183147 64.535378,14.0322178 65.4301255,14.0322178 C66.324873,14.0322178 67.1525145,14.1950526 67.8683126,14.5439844 C68.6064793,14.8696541 69.2104339,15.3348965 69.7472824,15.9164495 C70.2617622,16.4980025 70.6643986,17.1726039 70.9551916,17.963516 C71.2236159,18.7544281 71.357828,19.5918644 71.357828,20.499087 C71.357828,21.4063097 71.2236159,22.2670081 70.9551916,23.0346581 C70.6867673,23.8255701 70.2841309,24.5001716 69.7472824,25.0817246 C69.2328026,25.6632776 68.6064793,26.12852 67.8683126,26.4541897 C67.1525145,26.7798593 66.324873,26.9659563 65.4301255,26.9659563 C64.535378,26.9659563 63.7077365,26.8031215 62.9919384,26.4541897 C62.2537717,26.12852 61.6498171,25.6632776 61.1129686,25.0817246 C60.5984888,24.5001716 60.1958524,23.8255701 59.9050594,23.0346581 C59.6366351,22.243746 59.502423,21.4063097 59.502423,20.499087 C59.502423,19.5918644 59.6366351,18.7544281 59.9050594,17.963516 Z" id="Shape"></path>
                <path d="M17.2288982,45.9461821 C17.6383892,47.0550257 18.2071267,48.002163 18.9351108,48.8337957 C19.6858443,49.6423276 20.5730749,50.289153 21.6423015,50.7742721 C22.711528,51.2593912 23.9172516,51.4904003 25.2367227,51.4904003 C26.8291878,51.4904003 28.2396569,51.2362903 29.4453805,50.7049694 C30.6511041,50.1736485 31.7658296,49.2496121 32.7895572,47.9097594 L30.6511041,46.2002921 C29.968619,47.0550257 29.2178855,47.7018512 28.3534044,48.1638694 C27.5116728,48.6027867 26.4651958,48.8337957 25.2367227,48.8337957 C24.4632396,48.8337957 23.7580051,48.6951903 23.0982696,48.3948785 C22.438534,48.0945666 21.8697965,47.7018512 21.3920569,47.1936312 C20.9143174,46.6854112 20.5048264,46.1078884 20.2090829,45.4148612 C19.9133393,44.7449348 19.7313433,44.0288066 19.6858443,43.2895775 L33.4265432,43.2895775 L33.4265432,42.3655411 C33.4265432,40.9332847 33.2217977,39.6627347 32.8350562,38.5538911 C32.4483147,37.4450474 31.9023266,36.4748092 31.1743426,35.7124792 C30.469108,34.9270483 29.604627,34.3495256 28.6036489,33.9337092 C27.6026709,33.5178928 26.5106948,33.3330855 25.3277207,33.3330855 C24.0764981,33.3330855 22.893524,33.5640946 21.847047,34.0030119 C20.7778204,34.4419292 19.8678403,35.0656537 19.0943573,35.8741856 C18.3208742,36.6827174 17.7066377,37.6298547 17.2743972,38.7617992 C16.8421566,39.8706429 16.6146616,41.0949911 16.6146616,42.4348438 C16.6374111,43.659192 16.8194071,44.8373384 17.2288982,45.9461821 Z M21.7214197,37.5739157 C22.695555,36.6542176 23.9641963,36.170166 25.5273435,36.170166 C27.0904908,36.170166 28.3364778,36.630015 29.2199958,37.5739157 C30.1035139,38.4936138 30.5792544,39.7279455 30.624563,41.2769108 L19.9770379,41.2769108 C20.1809267,39.7521481 20.7699387,38.5178164 21.7214197,37.5739157 Z" id="Shape"></path>
                <path d="M41.9075094,51.3293973 L40.7483172,54.5466473 C40.4301075,55.3908902 40.0664394,56.0754114 39.6118542,56.5773937 C39.1799983,57.0793759 38.4981205,57.3531844 37.5662208,57.3531844 C37.1570942,57.3531844 36.793426,57.3303671 36.4752164,57.3075497 C36.1570067,57.2619149 35.8615264,57.1934628 35.566046,57.0793759 L35.2023778,59.5664699 C35.5887752,59.7490089 35.9979019,59.8859131 36.4524871,59.9315479 C36.9070723,59.9771826 37.3389282,60 37.7480549,60 C38.5890375,60 39.3163738,59.8859131 39.9073346,59.6577394 C40.4982953,59.4295656 40.998339,59.1101224 41.4301949,58.6765922 C41.8620509,58.2430621 42.225719,57.7410798 42.5211994,57.1478281 C42.8166798,56.5545763 43.1121602,55.8928724 43.4076405,55.1627164 L51.6129032,34.1935484 L48.5217239,34.1935484 L43.4758283,47.5645304 L43.4076405,47.5645304 L38.1344523,34.1935484 L34.8387097,34.1935484 L41.9075094,51.3293973 Z" id="Path"></path>
                <polygon id="Path" points="0 0 0 23.3954033 0 29.2157231 0 50.9677419 2.82768778 50.9677419 2.82768778 41.9747772 11.2879472 50.9677419 15.483871 50.9677419 6.40790536 41.6552302 14.6401254 33.8948038 10.6038292 33.8948038 2.82768778 41.4041576 2.82768778 29.2157231 2.82768778 23.3954033 2.82768778 20.2455831 11.2879472 29.2157231 15.483871 29.2157231 6.40790536 19.9032114 14.6401254 12.1427849 10.6038292 12.1427849 2.82768778 19.6521387 2.82768778 0"></polygon>
            </g>
        </g>
    </g>
</svg>