<?xml version="1.0" encoding="UTF-8"?>
<svg width="126px" height="31px" viewBox="0 0 126 31" version="1.1" xmlns="http://www.w3.org/2000/svg" xmlns:xlink="http://www.w3.org/1999/xlink">
    <title>Shape</title>
    <g id="FInal-Design" stroke="none" stroke-width="1" fill="none" fill-rule="evenodd">
        <g id="Desktop-HD-Designs-Copy-5" transform="translate(-448.000000, -4558.000000)" fill="#A5A9BA" fill-rule="nonzero">
            <g id="ledger-logo" transform="translate(448.000000, 4558.000000)">
                <path d="M21.7646447,0 L9.89164533,0 L9.89164533,16.0478905 L25.9138924,16.0478905 L25.9138924,4.15588858 C25.9138924,1.85323343 24.0636204,0 21.7646447,0 Z M6.19110115,0 L4.14924776,0 C1.85027209,0 0,1.85323343 0,4.15588858 L0,6.20100994 L6.19110115,6.20100994 L6.19110115,0 Z M0,9.90747679 L6.19110115,9.90747679 L6.19110115,16.1084867 L0,16.1084867 L0,9.90747679 Z M19.7883323,25.9553673 L21.8301857,25.9553673 C24.1291613,25.9553673 25.9794334,24.1021339 25.9794334,21.7994787 L25.9794334,19.8200033 L19.7883323,19.8200033 L19.7883323,25.9553673 Z M9.89164533,19.8200033 L16.0827465,19.8200033 L16.0827465,26.0210132 L9.89164533,26.0210132 L9.89164533,19.8200033 Z M0,19.8200033 L0,21.8651246 C0,24.1677798 1.85027209,26.0210132 4.14924776,26.0210132 L6.19110115,26.0210132 L6.19110115,19.8200033 L0,19.8200033 Z M41.7445583,1.6613455 L39.3195423,1.6613455 L39.3195423,24.354618 L52.1504481,24.354618 L52.1504481,22.1832546 L41.7445583,22.1832546 L41.7445583,1.6613455 Z M59.9346991,7.6704675 C55.2107074,7.6704675 51.8933259,11.1850464 51.8933259,16.2347288 L51.8933259,16.8154423 C51.9588668,18.9868057 52.9167734,21.0369767 54.5099232,22.5670305 C56.0425736,23.9758918 58.018886,24.8040397 60.1262804,24.8040397 L60.443902,24.8040397 C62.6773367,24.8040397 64.7847311,23.9708422 66.4434219,22.5670305 L66.5089629,22.5013846 L65.425016,20.713797 L65.2989757,20.7794429 C63.9579065,21.9964164 62.2992157,22.6983222 60.5144846,22.6983222 C57.5802657,22.6983222 54.5805058,20.7794429 54.3889245,16.4973123 L66.6450864,16.4973123 L66.6450864,16.3710702 C66.6450864,16.3710702 66.7106274,15.6035185 66.7106274,15.2197426 C66.6955026,10.6144323 64.0184059,7.6704675 59.9346991,7.6704675 L59.9346991,7.6704675 Z M54.4443822,14.4471412 C54.9535851,11.5688223 57.0609795,9.71558886 59.8036172,9.71558886 C61.8454706,9.71558886 64.0789052,10.9325623 64.2704866,14.4471412 L54.4443822,14.4471412 Z M80.7414373,9.5893468 L80.7414373,10.4225444 C79.7179898,8.69555302 77.8072183,7.60987131 75.8258643,7.60987131 L75.634283,7.60987131 C71.2934539,7.60987131 68.293694,11.063854 68.293694,16.1135364 C68.293694,21.2288646 71.1674136,24.6777977 75.4427017,24.6777977 C78.8256242,24.6777977 80.3582746,22.6326763 80.8674776,21.7388826 L80.8674776,24.2334256 L83.1664533,24.2334256 L83.1664533,1.6613455 L80.8069782,1.6613455 L80.8069782,9.5893468 L80.7414373,9.5893468 Z M75.7603233,22.5670305 C72.7605634,22.5670305 70.784251,20.0118912 70.784251,16.1741326 C70.784251,12.4676657 72.8916453,9.8468806 75.8258643,9.8468806 C78.3164213,9.8468806 80.8019366,11.8263561 80.8019366,16.1741326 C80.8019366,20.905685 78.1853393,22.5670305 75.7603233,22.5670305 Z M97.1418054,9.90747679 L97.1418054,10.0337188 C96.6931018,9.26616713 95.2915333,7.60482163 91.9086108,7.60482163 C87.6333227,7.60482163 84.825144,10.8669164 84.825144,15.8509529 C84.825144,20.8349894 87.759363,24.2233263 92.1001921,24.2233263 C94.4596671,24.2233263 96.0578585,23.3901287 97.1418054,21.668187 L97.1418054,23.9051963 C97.1418054,27.0359993 95.165493,28.8286366 91.6514885,28.8286366 C90.184379,28.8286366 88.6517286,28.4448607 87.3106594,27.7429549 L87.1846191,27.677309 L86.2922535,29.6567845 L86.4182939,29.7224304 C88.0769846,30.555628 89.9272567,31 91.7170294,31 C95.4831146,31 99.5012804,29.0811207 99.5012804,23.7739045 L99.5012804,8.05424336 L97.1418054,8.05424336 L97.1418054,9.90747679 Z M92.4178137,22.1176087 C89.2920134,22.1176087 87.2501601,19.6887115 87.2501601,15.9165988 C87.2501601,12.0788402 89.0348912,9.90747679 92.1001921,9.90747679 C95.4831146,9.90747679 97.0762644,11.8869523 97.0762644,15.9165988 C97.1418054,19.8805994 95.4831146,22.1176087 92.4178137,22.1176087 Z M109.140845,7.6704675 C104.416853,7.6704675 101.165013,11.1850464 101.165013,16.1741326 L101.165013,16.7497964 C101.230554,18.9211598 102.18846,20.9713308 103.78161,22.5013846 C105.314261,23.910246 107.290573,24.7383939 109.397967,24.7383939 L109.715589,24.7383939 C111.949024,24.7383939 114.056418,23.9051963 115.715109,22.5013846 L115.78065,22.4357387 L114.631162,20.6481512 L114.505122,20.713797 C113.164052,21.9307705 111.505362,22.6326763 109.720631,22.6326763 C106.786412,22.6326763 103.786652,20.713797 103.59507,16.4316664 L115.90669,16.4316664 L115.90669,16.3054243 C115.90669,16.3054243 115.972231,15.5378726 115.972231,15.1540968 C115.972231,10.6144323 113.290093,7.6704675 109.140845,7.6704675 Z M103.716069,14.4471412 C104.225272,11.5688223 106.332666,9.71558886 109.075304,9.71558886 C111.117157,9.71558886 113.350592,10.9325623 113.542173,14.4471412 L103.716069,14.4471412 Z M125.929417,7.98859749 C125.611796,7.92295162 125.354673,7.92295162 125.037052,7.86235543 C122.803617,7.86235543 120.953345,9.27121681 119.995439,11.6344682 L119.995439,7.98859749 L117.635964,7.98859749 L117.701504,24.1627301 L117.701504,24.2889721 L120.12652,24.2889721 L120.12652,17.4517022 C120.12652,16.4266167 120.252561,15.340935 120.575224,14.3814954 C121.341549,11.8869523 123.065781,10.2912526 125.107634,10.2912526 C125.364757,10.2912526 125.616837,10.2912526 125.87396,10.3568985 L126,10.3568985 L126,7.99364717 L125.929417,7.98859749 Z" id="Shape"></path>
            </g>
        </g>
    </g>
</svg>