<?xml version="1.0" encoding="UTF-8"?>
<svg width="90px" height="49px" viewBox="0 0 90 49" version="1.1" xmlns="http://www.w3.org/2000/svg" xmlns:xlink="http://www.w3.org/1999/xlink">
    <title>sswallet</title>
    <g id="FInal-Design" stroke="none" stroke-width="1" fill="none" fill-rule="evenodd">
        <g id="Desktop-HD-Designs-Copy-5" transform="translate(-41.000000, -4537.000000)" fill="#A5A9BA" fill-rule="nonzero">
            <g id="sswallet" transform="translate(41.000000, 4537.000000)">
                <g id="Group" transform="translate(0.000000, 31.000000)">
                    <polygon id="Path" points="75.6925381 13.5862069 77.2198652 13.5862069 77.2198652 4.34482759 75.6925381 4.34482759"></polygon>
                    <rect id="Rectangle" x="75.6925381" y="1.56321839" width="1.52732718" height="1.56321839"></rect>
                    <path d="M5.52533067,1.47126437 C3.86323933,1.47126437 2.11130522,2.13793103 2.11130522,3.74712644 C2.11130522,5.1954023 3.72847517,5.6091954 5.63763414,5.93103448 C8.24307462,6.34482759 10.8035937,6.87356322 10.8035937,9.88505747 C10.781133,12.8735632 7.99600699,13.8390805 5.50286998,13.8390805 C3.21187921,13.8390805 1.01073122,12.9885057 0,10.7586207 L1.34764163,9.95402299 C2.1786873,11.5402299 3.93062141,12.2988506 5.52533067,12.2988506 C7.09757924,12.2988506 9.20888445,11.7931034 9.20888445,9.83908046 C9.23134515,8.18390805 7.41202895,7.70114943 5.45794859,7.40229885 C2.94235089,7.01149425 0.516595957,6.4137931 0.516595957,3.72413793 C0.47167457,0.942528736 3.23433991,0 5.48040928,0 C7.41202895,0 9.25380584,0.390804598 10.3993012,2.4137931 L9.16396306,3.1954023 C8.49014225,2.02298851 6.98527577,1.49425287 5.52533067,1.47126437 Z" id="Path"></path>
                    <path d="M13.5437984,0.298850575 L13.5437984,5.74712644 C14.3299226,4.50574713 15.5428001,4.09195402 16.7107562,4.06896552 C19.293736,4.06896552 20.5515348,5.81609195 20.5515348,8.3908046 L20.5515348,13.5632184 L19.0466683,13.5632184 L19.0466683,8.4137931 C19.0466683,6.57471264 18.1257799,5.51724138 16.4412279,5.51724138 C14.7566758,5.51724138 13.5437984,6.87356322 13.5437984,8.57471264 L13.5437984,13.5632184 L12.0164712,13.5632184 L12.0164712,0.275862069 L13.5437984,0.298850575 L13.5437984,0.298850575 Z" id="Path"></path>
                    <path d="M29.9625655,13.6321839 L29.9176441,11.9310345 C29.1989019,13.2183908 27.8063389,13.8390805 26.5485401,13.8390805 C23.9206389,13.8390805 21.8542551,11.9770115 21.8542551,8.91954023 C21.8542551,5.88505747 23.9430996,4.04597701 26.5710007,4.06896552 C27.9411031,4.06896552 29.2887447,4.71264368 29.9625655,5.93103448 L29.9850262,4.22988506 L31.467432,4.22988506 L31.467432,13.6091954 L30.0074869,13.6091954 L29.9625655,13.6321839 Z M26.6159221,5.51724138 C24.7966059,5.51724138 23.3366608,6.85057471 23.3366608,8.94252874 C23.3366608,11.0344828 24.7966059,12.3908046 26.6159221,12.3908046 C31.0406788,12.3908046 31.0406788,5.51724138 26.6159221,5.51724138 L26.6159221,5.51724138 Z" id="Shape"></path>
                    <path d="M32.859995,4.22988506 L34.2974794,4.22988506 L34.3648615,6.04597701 C35.0836037,4.7816092 36.453706,4.06896552 37.8911904,4.06896552 C40.5190916,4.11494253 42.4507113,6.02298851 42.4507113,8.91954023 C42.4507113,11.8850575 40.5415523,13.7931034 37.8013476,13.7931034 C36.4986274,13.7931034 35.061143,13.2183908 34.3199401,11.8850575 L34.3199401,18 L32.8375343,18 L32.8375343,4.22988506 L32.859995,4.22988506 Z M40.9683055,8.94252874 C40.9683055,6.82758621 39.6206638,5.5862069 37.7339656,5.5862069 C35.8248066,5.5862069 34.5220863,7.03448276 34.5220863,8.94252874 C34.5220863,10.8505747 35.869728,12.2988506 37.7339656,12.3218391 C39.5757425,12.3218391 40.9683055,11.0574713 40.9683055,8.94252874 Z" id="Shape"></path>
                    <path d="M52.2660344,12.091954 C51.345146,13.2183908 49.7504367,13.7701149 48.3129523,13.7701149 C45.4829049,13.7701149 43.4839032,11.862069 43.4839032,8.87356322 C43.4839032,6.04597701 45.4604442,4 48.2455703,4 C51.053157,4 53.1869229,5.77011494 52.8275518,9.51724138 L45.033691,9.51724138 C45.1909159,11.2413793 46.5834789,12.3218391 48.3578737,12.3218391 C49.3910656,12.3218391 50.6488645,11.908046 51.2777639,11.1494253 L52.2660344,12.091954 L52.2660344,12.091954 Z M51.3676067,8.20689655 C51.3002246,6.3908046 50.0648864,5.40229885 48.2680309,5.40229885 C46.6733217,5.40229885 45.2807587,6.3908046 45.0112303,8.18390805 L51.3676067,8.20689655 L51.3676067,8.20689655 Z" id="Shape"></path>
                    <path d="M59.1839281,1.47126437 C57.5218368,1.47126437 55.7699027,2.13793103 55.7699027,3.74712644 C55.7699027,5.1954023 57.3870726,5.6091954 59.2962316,5.93103448 C61.9016721,6.34482759 64.4621912,6.87356322 64.4621912,9.88505747 C64.4397305,12.8735632 61.6546044,13.8390805 59.1614674,13.8390805 C56.8704767,13.8390805 54.6693287,12.9885057 53.6585975,10.7586207 L55.0062391,9.95402299 C55.8372848,11.5402299 57.5892189,12.2988506 59.1839281,12.2988506 C60.7561767,12.2988506 62.8674819,11.7931034 62.8674819,9.83908046 C62.8899426,8.18390805 61.0706264,7.70114943 59.116546,7.40229885 C56.6009483,7.01149425 54.1751934,6.4137931 54.1751934,3.72413793 C54.130272,0.942528736 56.8929374,0 59.1390067,0 C61.0706264,0 62.9124033,0.390804598 64.0578987,2.4137931 L62.8225605,3.1954023 C62.126279,2.02298851 60.6214125,1.49425287 59.1839281,1.47126437 Z" id="Path"></path>
                    <path d="M67.1574744,0.298850575 L67.1574744,5.74712644 C67.9435987,4.50574713 69.1564762,4.09195402 70.3244322,4.06896552 C72.907412,4.06896552 74.1652109,5.81609195 74.1652109,8.3908046 L74.1652109,13.5632184 L72.6603444,13.5632184 L72.6603444,8.4137931 C72.6603444,6.57471264 71.739456,5.51724138 70.0549039,5.51724138 C68.3928126,5.51724138 67.1574744,6.87356322 67.1574744,8.57471264 L67.1574744,13.5632184 L65.6301472,13.5632184 L65.6301472,0.275862069 L67.1574744,0.298850575 L67.1574744,0.298850575 Z" id="Path"></path>
                    <g transform="translate(78.634889, 0.183908)" id="Path">
                        <polygon points="1.48240579 13.4482759 1.48240579 13.4252874 1.4599451 13.4252874"></polygon>
                        <path d="M3.27926129,3.37931034 C3.27926129,1.97701149 3.90816072,1.35632184 4.89643125,1.35632184 C4.91889194,1.35632184 4.94135263,1.35632184 4.96381333,1.35632184 L5.30072373,0.0229885057 C5.16595957,0 5.00873471,0 4.87397055,0 C2.94235089,0 1.7968555,1.26436782 1.7968555,3.40229885 L1.7968555,4.13793103 L0,4.13793103 L0,5.51724138 L1.7968555,5.51724138 L1.7968555,13.4252874 L3.30172199,13.4252874 L3.30172199,5.51724138 L5.12103818,5.51724138 L5.12103818,4.13793103 L3.30172199,4.13793103 L3.30172199,3.37931034 L3.27926129,3.37931034 Z"></path>
                    </g>
                    <path d="M89.6855503,12.2758621 C89.5732468,12.2988506 89.4384827,12.2988506 89.3261792,12.2988506 C88.2256052,12.2988506 87.8886948,11.5862069 87.8886948,10.4827586 L87.8886948,5.65517241 L89.8427751,5.65517241 L89.8427751,4.29885057 L87.9111555,4.29885057 L87.9111555,1.44827586 L86.3838283,1.6091954 L86.3838283,4.29885057 L84.5420514,4.29885057 L84.5420514,5.65517241 L86.3838283,5.65517241 L86.3838283,10.4827586 C86.3838283,12.5517241 87.3047167,13.7241379 89.2812578,13.7011494 C89.5283254,13.7011494 89.7529324,13.6551724 90,13.6091954 L89.6855503,12.2758621 Z" id="Path"></path>
                </g>
                <path d="M56,0.021719457 L48.3762376,3.04072398 L41.2752475,3.04072398 L34,0 L35.6554455,9.94751131 L34.0653465,15.3339367 L38.2039604,17.8099548 C40.1643564,18.9828054 41.9069307,20.438009 43.409901,22.1538462 L45.0217822,24 L46.7207921,22.0669683 C48.180198,20.4162896 49.8574257,18.9828054 51.7524752,17.8316742 L55.8039604,15.3556561 L54.3445545,9.96923077 L56,0.021719457 Z M50.9465347,16.8108597 C49.5742574,17.6579186 48.2891089,18.6570136 47.1128713,19.7864253 L45.6970297,18.2443439 L50.9465347,16.8108597 Z M44.2594059,18.2660633 L42.8871287,19.7864253 C41.7108911,18.678733 40.4257426,17.7013575 39.0534653,16.8542986 L44.2594059,18.2660633 Z M42.9089109,16.5936652 L35.590099,14.5954751 L36.5920792,11.1855204 L42.9089109,16.5936652 Z M40.1425743,3.93122172 L36.6574257,8.44886878 L35.590099,2.0199095 L40.1425743,3.93122172 Z M52.0138614,10.599095 L44.9782178,16.7239819 L37.8118812,10.599095 L52.0138614,10.599095 Z M37.550495,9.36108597 L41.449505,4.27873303 L48.2019802,4.27873303 L52.5148515,9.33936652 L37.550495,9.33936652 L37.550495,9.36108597 Z M53.3425743,11.0986425 L54.3009901,14.5954751 L47.0475248,16.5936652 L53.3425743,11.0986425 Z M54.3881188,1.99819005 L53.3207921,8.36199095 L49.5306931,3.90950226 L54.3881188,1.99819005 Z" id="Shape"></path>
            </g>
        </g>
    </g>
</svg>