<svg width="18" height="18" viewBox="0 0 18 18" fill="none" xmlns="http://www.w3.org/2000/svg">
<path d="M15.6976 5.5906C15.6641 5.52558 15.6158 5.46937 15.5565 5.42655C15.4973 5.38373 15.4287 5.35552 15.3565 5.34421C15.2843 5.33289 15.2104 5.3388 15.1408 5.36144C15.0713 5.38409 15.0081 5.42284 14.9564 5.47453L13.1734 7.25866C13.0859 7.34492 12.968 7.39327 12.8451 7.39327C12.7222 7.39327 12.6042 7.34492 12.5167 7.25866L11.746 6.48674C11.7028 6.44362 11.6686 6.39243 11.6453 6.33609C11.6219 6.27975 11.6099 6.21936 11.6099 6.15838C11.6099 6.09739 11.6219 6.03701 11.6453 5.98067C11.6686 5.92433 11.7028 5.87314 11.746 5.83002L13.5214 4.0543C13.5746 4.00108 13.6141 3.93573 13.6364 3.86386C13.6588 3.79199 13.6634 3.71576 13.6497 3.64175C13.6361 3.56773 13.6046 3.49814 13.5581 3.43898C13.5116 3.37981 13.4514 3.33284 13.3827 3.30211C12.0417 2.70256 10.3678 3.01539 9.31236 4.063C8.41565 4.95333 8.14837 6.34454 8.57961 7.87997C8.60286 7.96185 8.60299 8.04857 8.57999 8.13052C8.557 8.21247 8.51176 8.28646 8.44931 8.34429L3.6181 12.7567C3.42989 12.9257 3.27808 13.1313 3.17192 13.3609C3.06577 13.5905 3.00751 13.8393 3.00068 14.0921C2.99385 14.345 3.03861 14.5966 3.13221 14.8315C3.22582 15.0665 3.36632 15.28 3.54513 15.4589C3.72395 15.6378 3.93734 15.7784 4.17228 15.8721C4.40722 15.9658 4.65879 16.0106 4.91164 16.0039C5.16449 15.9972 5.41333 15.9391 5.64296 15.833C5.8726 15.727 6.07822 15.5752 6.24729 15.3871L10.707 10.5452C10.764 10.4835 10.8368 10.4386 10.9174 10.4152C10.9981 10.3918 11.0836 10.3909 11.1647 10.4125C11.6018 10.5323 12.0527 10.5944 12.506 10.5974C13.4752 10.5974 14.3258 10.2837 14.9393 9.6792C16.0754 8.55991 16.2487 6.66143 15.6976 5.5906ZM4.95852 15.0693C4.7674 15.0902 4.57451 15.0512 4.40648 14.9578C4.23844 14.8644 4.10355 14.7211 4.02042 14.5477C3.93729 14.3744 3.91001 14.1795 3.94236 13.99C3.9747 13.8004 4.06507 13.6256 4.201 13.4897C4.33692 13.3537 4.5117 13.2633 4.70121 13.2308C4.89071 13.1984 5.08561 13.2256 5.259 13.3087C5.43238 13.3918 5.57571 13.5266 5.6692 13.6946C5.76269 13.8626 5.80173 14.0555 5.78094 14.2466C5.75806 14.4569 5.66407 14.6531 5.51451 14.8027C5.36496 14.9523 5.16881 15.0464 4.95852 15.0693Z" fill="#3761F9"/>
</svg>
