<svg width="12" height="13" viewBox="0 0 12 13" fill="none" xmlns="http://www.w3.org/2000/svg">
<mask id="mask0_186_446" style="mask-type:alpha" maskUnits="userSpaceOnUse" x="0" y="0" width="12" height="13">
<path d="M12 6.5C12 9.81371 9.31371 12.5 6 12.5C2.68629 12.5 0 9.81371 0 6.5C0 3.18629 2.68629 0.5 6 0.5C9.31371 0.5 12 3.18629 12 6.5ZM1.2 6.5C1.2 9.15097 3.34903 11.3 6 11.3C8.65097 11.3 10.8 9.15097 10.8 6.5C10.8 3.84903 8.65097 1.7 6 1.7C3.34903 1.7 1.2 3.84903 1.2 6.5Z" fill="#E2E8F0"/>
</mask>
<g mask="url(#mask0_186_446)">
<path d="M12 6.5C12 9.81371 9.31371 12.5 6 12.5C2.68629 12.5 0 9.81371 0 6.5C0 3.18629 2.68629 0.5 6 0.5C9.31371 0.5 12 3.18629 12 6.5ZM1.2 6.5C1.2 9.15097 3.34903 11.3 6 11.3C8.65097 11.3 10.8 9.15097 10.8 6.5C10.8 3.84903 8.65097 1.7 6 1.7C3.34903 1.7 1.2 3.84903 1.2 6.5Z" fill="white" fill-opacity="0.08"/>
<path d="M6 0.5C7.26708 0.5 8.50163 0.90113 9.52671 1.6459C10.5518 2.39067 11.3148 3.44084 11.7063 4.6459C12.0979 5.85096 12.0979 7.14904 11.7063 8.3541C11.3148 9.55916 10.5518 10.6093 9.52671 11.3541L8.82137 10.3833C9.64144 9.78747 10.2518 8.94733 10.5651 7.98328C10.8783 7.01923 10.8783 5.98077 10.5651 5.01672C10.2518 4.05267 9.64144 3.21253 8.82137 2.61672C8.0013 2.0209 7.01366 1.7 6 1.7L6 0.5Z" fill="#C959F0"/>
</g>
</svg>
