<svg width="12" height="12" viewBox="0 0 12 12" fill="none" xmlns="http://www.w3.org/2000/svg">
<mask id="mask0_146_646" style="mask-type:alpha" maskUnits="userSpaceOnUse" x="0" y="0" width="12" height="12">
<path d="M12 6C12 9.31371 9.31371 12 6 12C2.68629 12 0 9.31371 0 6C0 2.68629 2.68629 0 6 0C9.31371 0 12 2.68629 12 6ZM1.2 6C1.2 8.65097 3.34903 10.8 6 10.8C8.65097 10.8 10.8 8.65097 10.8 6C10.8 3.34903 8.65097 1.2 6 1.2C3.34903 1.2 1.2 3.34903 1.2 6Z" fill="#E2E8F0"/>
</mask>
<g mask="url(#mask0_146_646)">
<path d="M12 6C12 9.31371 9.31371 12 6 12C2.68629 12 0 9.31371 0 6C0 2.68629 2.68629 0 6 0C9.31371 0 12 2.68629 12 6ZM1.2 6C1.2 8.65097 3.34903 10.8 6 10.8C8.65097 10.8 10.8 8.65097 10.8 6C10.8 3.34903 8.65097 1.2 6 1.2C3.34903 1.2 1.2 3.34903 1.2 6Z" fill="white" fill-opacity="0.08"/>
<path d="M6 0C7.26708 1.51097e-08 8.50163 0.40113 9.52671 1.1459C10.5518 1.89067 11.3148 2.94084 11.7063 4.1459C12.0979 5.35096 12.0979 6.64904 11.7063 7.8541C11.3148 9.05916 10.5518 10.1093 9.52671 10.8541L8.82137 9.88328C9.64144 9.28747 10.2518 8.44733 10.5651 7.48328C10.8783 6.51923 10.8783 5.48077 10.5651 4.51672C10.2518 3.55267 9.64144 2.71253 8.82137 2.11672C8.0013 1.5209 7.01366 1.2 6 1.2V0Z" fill="#0BC5EA"/>
</g>
</svg>
